<svg width="1920" height="1486" viewBox="0 0 1920 1486" fill="none" xmlns="http://www.w3.org/2000/svg">
<path fill-rule="evenodd" clip-rule="evenodd" d="M2124.13 551.496C2108.08 461.027 2086.13 337.302 1933.56 269.937C1756.54 191.776 1642.5 228.05 1490.23 276.485C1365.65 316.112 1215.48 363.879 984.289 363.777C851.585 363.719 736.062 286.615 611.367 203.39C359.289 35.1451 69.7325 -158.114 -475 209.564L-318.284 555.44L-340.65 1171.64C-257.884 1050.58 -113.89 959.329 57.1932 947.382C217.055 936.218 484.98 994.003 820.702 1179.26C846.462 1193.47 873.503 1209.27 902.123 1226C1126.6 1357.18 1448.17 1545.11 2010.5 1468.5V906.905L2123.07 923.805L2155.92 647.846C2137.94 629.358 2131.69 594.118 2124.13 551.496Z" fill="url(#paint0_linear_14_13341)"/>
<defs>
<linearGradient id="paint0_linear_14_13341" x1="845.773" y1="184.324" x2="568.094" y2="1566.14" gradientUnits="userSpaceOnUse">
<stop stop-color="#2382F2"/>
<stop offset="1" stop-color="#4659FF"/>
</linearGradient>
</defs>
</svg>
