<!-- Generated by IcoMoon.io -->
<svg version="1.1" xmlns="http://www.w3.org/2000/svg" width="32" height="32" viewBox="0 0 32 32">
<title>arrow-with-point</title>
<path stroke-linejoin="round" stroke-linecap="butt" stroke-miterlimit="4" stroke-width="0.6" stroke="#000" fill="#000" d="M24.343 8.929l6.364 6.364c0.39 0.391 0.39 1.024 0 1.414l-6.364 6.364c-0.39 0.39-1.024 0.39-1.414 0s-0.39-1.024 0-1.414l4.657-4.657h-20.586c-0.552 0-1-0.448-1-1s0.448-1 1-1h20.586l-4.657-4.657c-0.39-0.391-0.39-1.024 0-1.414s1.024-0.391 1.414 0z"></path>
<path stroke-linejoin="miter" stroke-linecap="butt" stroke-miterlimit="4" stroke-width="0.6" stroke="#000" fill="#000" d="M3 16c0 0.552-0.448 1-1 1s-1-0.448-1-1c0-0.552 0.448-1 1-1s1 0.448 1 1z"></path>
</svg>
