<!-- Generated by IcoMoon.io -->
<svg version="1.1" xmlns="http://www.w3.org/2000/svg" width="32" height="32" viewBox="0 0 32 32">
<title>close-circle</title>
<path fill="none" opacity="0.8" stroke-linejoin="miter" stroke-linecap="butt" stroke-miterlimit="4" stroke-width="1.7778" stroke="#000" d="M31.111 16c0 8.346-6.765 15.111-15.111 15.111s-15.111-6.765-15.111-15.111c0-8.346 6.765-15.111 15.111-15.111s15.111 6.765 15.111 15.111z"></path>
<path opacity="0.8" fill="#000" d="M12.858 11.6l7.542 7.542c0.347 0.347 0.347 0.91 0 1.257s-0.91 0.347-1.257 0l-7.542-7.542c-0.347-0.347-0.347-0.91 0-1.257s0.91-0.347 1.257 0z"></path>
<path opacity="0.8" fill="#000" d="M11.601 19.143l7.542-7.542c0.347-0.347 0.91-0.347 1.257 0s0.347 0.91 0 1.257l-7.542 7.542c-0.347 0.347-0.91 0.347-1.257 0s-0.347-0.91 0-1.257z"></path>
</svg>
