<!-- Generated by IcoMoon.io -->
<svg version="1.1" xmlns="http://www.w3.org/2000/svg" width="32" height="32" viewBox="0 0 32 32">
<title>eye</title>
<path fill="none" stroke-linejoin="miter" stroke-linecap="round" stroke-miterlimit="4" stroke-width="1.7778" stroke="#000" d="M20.178 7.345c6.007 2.163 10.4 8.36 10.4 8.36s-6.447 9.095-14.4 9.095c-7.953 0-14.4-9.095-14.4-9.095s4.393-6.197 10.4-8.36"></path>
<path fill="none" stroke-linejoin="miter" stroke-linecap="butt" stroke-miterlimit="4" stroke-width="1.7778" stroke="#000" d="M11.111 15.556v0c0 2.695 2.194 4.889 4.889 4.889s4.889-2.194 4.889-4.889c0-2.695-2.194-4.889-4.889-4.889s-4.889 2.194-4.889 4.889z"></path>
<path stroke-linejoin="miter" stroke-linecap="butt" stroke-miterlimit="4" stroke-width="0.8889" stroke="#000" fill="#000" d="M16.667 7c0 0.307-0.249 0.556-0.556 0.556s-0.556-0.249-0.556-0.556c0-0.307 0.249-0.556 0.556-0.556s0.556 0.249 0.556 0.556z"></path>
</svg>
