<!-- Generated by IcoMoon.io -->
<svg version="1.1" xmlns="http://www.w3.org/2000/svg" width="32" height="32" viewBox="0 0 32 32">
<title>facebook-hexagon</title>
<path d="M26.554 7.56c0.326 0.188 0.742 0.076 0.93-0.249s0.076-0.742-0.249-0.93l-0.681 1.179zM29.948 11.574c0-0.376-0.305-0.681-0.681-0.681s-0.681 0.305-0.681 0.681h1.362zM4.777 7.161v0zM18.043 30.14v0zM27.225 24.839v0zM26.885 24.249l-9.182 5.301 0.681 1.179 9.182-5.301-0.681-1.179zM14.299 29.55l-9.182-5.301-0.681 1.179 9.182 5.301 0.681-1.179zM3.415 21.301v-10.602h-1.362v10.602h1.362zM5.117 7.751l9.182-5.301-0.681-1.179-9.182 5.301 0.681 1.179zM17.703 2.45l8.851 5.11 0.681-1.179-8.851-5.11-0.681 1.179zM28.587 11.574v9.727h1.362v-9.727h-1.362zM3.415 10.699c0-1.216 0.649-2.34 1.702-2.948l-0.681-1.179c-1.475 0.851-2.383 2.425-2.383 4.127h1.362zM5.117 24.249c-1.053-0.608-1.702-1.732-1.702-2.948h-1.362c0 1.703 0.908 3.276 2.383 4.127l0.681-1.179zM17.703 29.55c-1.053 0.608-2.351 0.608-3.404 0l-0.681 1.179c1.475 0.851 3.291 0.851 4.766 0l-0.681-1.179zM27.565 25.428c1.475-0.851 2.383-2.425 2.383-4.127h-1.362c0 1.216-0.649 2.34-1.702 2.948l0.681 1.179zM14.299 2.45c1.053-0.608 2.351-0.608 3.404 0l0.681-1.179c-1.475-0.851-3.291-0.851-4.766 0l0.681 1.179z"></path>
<path d="M29.617 8.715c0 0.376-0.305 0.681-0.681 0.681s-0.681-0.305-0.681-0.681c0-0.376 0.305-0.681 0.681-0.681s0.681 0.305 0.681 0.681z"></path>
<path d="M17.213 13.293c0.015-0.017 0.083-0.071 0.353-0.071l0.883-0c0.287 0 0.521-0.233 0.521-0.52v-1.541c0-0.286-0.233-0.52-0.52-0.52l-1.312-0.002c-0.81 0-1.498 0.267-1.991 0.771-0.49 0.502-0.75 1.203-0.75 2.027v0.831h-1.004c-0.287 0-0.521 0.233-0.521 0.52v1.66c0 0.287 0.234 0.52 0.521 0.52h1.004v3.873c0 0.287 0.234 0.52 0.521 0.52h1.721c0.287 0 0.521-0.233 0.521-0.52v-3.873h1.227c0.287 0 0.521-0.233 0.521-0.52l0.001-1.66c0-0.188-0.103-0.363-0.268-0.455-0.077-0.043-0.166-0.065-0.258-0.065h-1.223v-0.657c0-0.214 0.029-0.292 0.053-0.319z"></path>
</svg>
