<svg width="62" height="62" viewBox="0 0 62 62" fill="none" xmlns="http://www.w3.org/2000/svg">
<path d="M25.5 49C25.9 47.4 25.6667 46 25.5 45.5L25 45L20 50V45.5L14 47.5L16 41.5H12L16 37.5L15.5 36C14.5 36 11.9 36.3 9.5 37.5C7.1 38.7 3.5 42.6667 2 44.5H9.5C9.9 44.5 7.33333 52.1667 6 56L17.5 52.5L17 59.5C18.1667 58.5 20.8 56.3 22 55.5C23.5 54.5 25 51 25.5 49Z" fill="#5FA9FF"/>
<path fill-rule="evenodd" clip-rule="evenodd" d="M37.5 7L55 24.5C54.1667 26.5 52.1 30.8 50.5 32C48.9 33.2 37.5 44.5 32 50L28 47.5L11.5 30L17 24.5L31.5 10.5C33.1667 9.33333 36.7 7 37.5 7ZM36 35C40.9706 35 45 30.9706 45 26C45 21.0294 40.9706 17 36 17C31.0294 17 27 21.0294 27 26C27 30.9706 31.0294 35 36 35Z" fill="white"/>
<path d="M58.8875 3.1662C57.2158 1.49409 54.9202 0.762041 52.5897 1.15715L49.9504 1.6048C49.9397 1.60621 49.9289 1.60785 49.9183 1.60961C41.4562 3.04539 33.767 6.98204 27.6589 12.9981L11.5057 14.4731C9.97246 14.613 8.52858 15.2897 7.43985 16.3783C4.86728 18.9509 4.86728 23.1368 7.43985 25.7094L11.3005 29.57C11.1363 29.9166 11.0467 30.2968 11.0467 30.6916C11.0467 31.3925 11.3196 32.0516 11.8152 32.5471L14.7559 35.4877C13.4521 35.4792 12.1509 35.6853 10.9043 36.1071C10.4433 36.2632 10.196 36.7635 10.3519 37.2245C10.4764 37.592 10.8193 37.8236 11.1868 37.8236C11.2805 37.8236 11.3758 37.8086 11.4695 37.7768C12.7709 37.3365 14.1423 37.1716 15.5024 37.2836C14.956 37.5862 14.4504 37.9668 13.9977 38.4195L11.2605 41.1555C11.0043 41.4115 10.9309 41.798 11.0752 42.1301C11.2195 42.4622 11.5564 42.6725 11.9139 42.6598L14.9363 42.5558L13.2667 47.5653C13.1612 47.882 13.2437 48.2312 13.4797 48.4673C13.7158 48.7033 14.0652 48.7859 14.3817 48.6802L19.3912 47.0107L19.2872 50.033C19.2747 50.3949 19.4849 50.7276 19.8169 50.8718C19.93 50.9209 20.0494 50.9448 20.1678 50.9448C20.3971 50.9448 20.6226 50.8554 20.7915 50.6865L23.5269 47.9498C23.9797 47.4976 24.3605 46.9923 24.6634 46.4457C24.6856 46.7183 24.6973 46.9921 24.6973 47.2663C24.6973 49.9434 23.6555 52.4595 21.7637 54.3513L18.2529 57.8613L18.4516 52.114C18.4616 51.8255 18.3297 51.5504 18.0984 51.3775C17.867 51.2047 17.5663 51.156 17.292 51.2473L7.40365 54.5434L10.6998 44.6551C10.791 44.3813 10.7425 44.0799 10.5697 43.8487C10.3967 43.6174 10.1212 43.4857 9.83308 43.4954L4.08587 43.6942L7.59709 40.1823C7.92792 39.8514 8.28155 39.5438 8.64822 39.2681C9.03733 38.9755 9.11549 38.423 8.82286 38.0339C8.53046 37.6447 7.97775 37.5666 7.58863 37.8592C7.15615 38.1844 6.73953 38.5467 6.35041 38.9359L1.25816 44.0293C1.00208 44.2852 0.928743 44.6718 1.07318 45.0039C1.2175 45.3359 1.54785 45.5451 1.91206 45.5335L8.62636 45.3011L5.17389 55.6583C5.06836 55.975 5.15074 56.3242 5.38685 56.5603C5.62295 56.7964 5.97199 56.8789 6.28895 56.7732L16.6461 53.3207L16.4139 60.035C16.4014 60.3969 16.6113 60.7295 16.9433 60.8738C17.0566 60.923 17.176 60.9469 17.2945 60.9469C17.5236 60.9469 17.7492 60.8575 17.9179 60.6888L23.0103 55.5976C25.235 53.3728 26.4602 50.4139 26.4602 47.2661C26.4602 47.2409 26.4592 47.2158 26.4591 47.1906L29.5048 50.2364C30.0005 50.732 30.6594 51.0048 31.3604 51.0048C31.7553 51.0048 32.1356 50.9154 32.482 50.7511L36.3429 54.612C37.5891 55.8582 39.2461 56.5445 41.0084 56.5445C42.7708 56.5445 44.4277 55.8582 45.6738 54.612C46.7626 53.5234 47.4391 52.0795 47.5791 50.5464L49.0541 34.3927C51.9933 31.409 54.4597 28.01 56.3857 24.2821C56.7723 23.5327 57.1361 22.7714 57.4766 22C58.1864 20.392 58.2723 19.8362 57.6 19.5C56.9277 19.1638 56.4442 19.9412 56 20.9701C55.6831 21.7042 55.3442 22.4292 54.9841 23.1433L38.9003 7.05996C42.4236 5.28161 46.2151 4.02893 50.1851 3.35247C50.1956 3.35106 50.2062 3.34954 50.2167 3.34766L52.8844 2.89519C54.6452 2.59657 56.3785 3.14987 57.6409 4.41253C58.9031 5.67507 59.4556 7.40853 59.1567 9.1689L58.7045 11.8387C58.6734 12.0206 58.6412 12.2012 58.6078 12.382C58.5193 12.8606 58.8357 13.3204 59.3144 13.4089C59.7925 13.4973 60.2528 13.1809 60.3412 12.7022C60.376 12.5139 60.4096 12.3257 60.4423 12.1346L60.8948 9.46365C61.2904 7.13318 60.5587 4.83784 58.8875 3.1662ZM8.68641 17.6248C9.48416 16.827 10.5422 16.3312 11.6658 16.2286L25.7059 14.9467L12.4376 28.2139L8.68653 24.4628C6.80111 22.5775 6.80111 19.5101 8.68641 17.6248ZM22.2805 46.7032L21.1257 47.8585L21.1965 45.8041C21.2064 45.5156 21.0745 45.2406 20.8432 45.0677C20.612 44.895 20.311 44.8462 20.037 44.9376L15.4964 46.4508L17.0096 41.9104C17.1008 41.6365 17.0523 41.3353 16.8795 41.104C16.7066 40.8727 16.4267 40.7412 16.1431 40.7508L14.0887 40.8215L15.2441 39.6665C15.9042 39.0064 16.7159 38.5543 17.6111 38.3432L23.605 44.3371C23.3928 45.2327 22.9405 46.0441 22.2805 46.7032ZM44.4273 53.3658C43.514 54.279 42.2998 54.7819 41.0083 54.7819C39.7169 54.7819 38.5026 54.2789 37.5893 53.3658L33.8379 49.6144L47.1055 36.3459L45.8236 50.3863C45.721 51.5098 45.225 52.568 44.4273 53.3658ZM54.118 24.7706C52.3389 27.9242 50.1452 30.814 47.5819 33.3761L31.969 48.9902C31.6333 49.3259 31.0869 49.3259 30.7512 48.9902L13.0617 31.3006C12.7259 30.9649 12.7259 30.4185 13.0615 30.0826L28.6745 14.4709C31.2617 11.8838 34.1513 9.69106 37.2745 7.92716L54.118 24.7706Z" fill="#222A3F" stroke="#222A3F" stroke-width="0.6"/>
<path d="M29.7375 32.3161C31.5028 34.0814 33.8498 35.0535 36.3463 35.0535C38.8427 35.0535 41.1899 34.0814 42.9552 32.3161C44.7205 30.5508 45.6927 28.2037 45.6927 25.7072C45.6927 23.2106 44.7205 20.8636 42.9552 19.0983C41.1899 17.333 38.8427 16.3608 36.3463 16.3608C33.8498 16.3608 31.5026 17.333 29.7375 19.0983C27.9721 20.8636 27 23.2106 27 25.7072C27 28.2037 27.9721 30.5509 29.7375 32.3161ZM30.984 20.3449C32.4164 18.9125 34.3207 18.1237 36.3463 18.1237C38.3719 18.1237 40.2763 18.9125 41.7087 20.3449C43.141 21.7772 43.9298 23.6816 43.9298 25.7072C43.9298 27.7328 43.141 29.6373 41.7087 31.0695C40.2763 32.5019 38.3719 33.2907 36.3463 33.2907C34.3207 33.2907 32.4164 32.5019 30.984 31.0695C29.5516 29.6371 28.7628 27.7328 28.7628 25.7072C28.7628 23.6816 29.5516 21.7772 30.984 20.3449Z" fill="#222A3F" stroke="#222A3F" stroke-width="0.6"/>
<path d="M33.5045 30.151C34.226 30.6229 34.7568 30.8125 35.4072 30.8805V31.3051C35.4072 31.7919 35.8017 32.1865 36.2886 32.1865C36.7755 32.1865 37.17 31.7919 37.17 31.3051V30.7947C38.4972 30.4302 39.3475 29.2849 39.5375 28.1548C39.7863 26.6744 38.983 25.3367 37.5386 24.8261C36.7253 24.5386 35.8259 24.1914 35.3206 23.795C35.1552 23.6652 35.086 23.3815 35.1443 23.0722C35.203 22.7603 35.4127 22.3829 35.8246 22.2587C36.7849 21.9694 37.418 22.4645 37.4871 22.522C37.8615 22.8332 38.4172 22.7821 38.7284 22.408C39.0396 22.0336 38.9886 21.4779 38.6143 21.1667C38.4726 21.0489 37.9553 20.6573 37.17 20.4861V20.1094C37.17 19.6227 36.7755 19.228 36.2886 19.228C35.8017 19.228 35.4072 19.6227 35.4072 20.1094V20.5456C35.3769 20.5539 35.3468 20.5617 35.3162 20.571C34.339 20.8654 33.6093 21.6987 33.412 22.7458C33.2304 23.7092 33.5449 24.6428 34.2325 25.1822C34.8017 25.6285 35.5892 26.007 36.9511 26.4883C37.8703 26.8133 37.8502 27.5577 37.7991 27.8626C37.6953 28.4793 37.1767 29.1456 36.2828 29.1516C35.4131 29.1572 35.1397 29.1143 34.4695 28.6759C34.0619 28.4094 33.5158 28.5237 33.2494 28.931C32.9829 29.3384 33.097 29.8846 33.5045 30.151Z" fill="#222A3F" stroke="#222A3F" stroke-width="0.6"/>
<circle cx="58.4508" cy="16.65" r="1.15" fill="#222A3F"/>
</svg>
