<!-- Generated by IcoMoon.io -->
<svg version="1.1" xmlns="http://www.w3.org/2000/svg" width="32" height="32" viewBox="0 0 32 32">
<title>more-info-circle</title>
<path fill="none" opacity="0.8" stroke-linejoin="miter" stroke-linecap="butt" stroke-miterlimit="4" stroke-width="1.7778" stroke="#fff" d="M31.111 16c0 8.346-6.765 15.111-15.111 15.111s-15.111-6.765-15.111-15.111c0-8.346 6.765-15.111 15.111-15.111s15.111 6.765 15.111 15.111z"></path>
<path opacity="0.8" fill="#000" d="M10.667 10.667h10.667c0.491 0 0.889 0.398 0.889 0.889s-0.398 0.889-0.889 0.889h-10.667c-0.491 0-0.889-0.398-0.889-0.889s0.398-0.889 0.889-0.889z"></path>
<path opacity="0.8" fill="#000" d="M10.667 19.556h8c0.491 0 0.889 0.398 0.889 0.889s-0.398 0.889-0.889 0.889h-8c-0.491 0-0.889-0.398-0.889-0.889s0.398-0.889 0.889-0.889z"></path>
<path opacity="0.8" fill="#000" d="M10.667 15.111h6.222c0.491 0 0.889 0.398 0.889 0.889s-0.398 0.889-0.889 0.889h-6.222c-0.491 0-0.889-0.398-0.889-0.889s0.398-0.889 0.889-0.889z"></path>
<path opacity="0.8" fill="#000" d="M20.444 15.111h0.889c0.491 0 0.889 0.398 0.889 0.889s-0.398 0.889-0.889 0.889h-0.889c-0.491 0-0.889-0.398-0.889-0.889s0.398-0.889 0.889-0.889z"></path>
</svg>
