<svg width="72" height="72" viewBox="0 0 72 72" fill="none" xmlns="http://www.w3.org/2000/svg">
<g clip-path="url(#clip0_14_13057)">
<path d="M69.4917 16.9054L59.3978 9.18506C58.3815 8.40755 57.1172 7.97948 55.8376 7.97948H53.4049C53.1558 7.27383 52.7816 6.58477 52.3006 5.95125C50.5207 3.61378 47.3359 2.67412 45.6186 3.98011C44.783 4.61545 44.3267 5.77575 44.3669 7.16344C44.4055 8.49403 44.891 9.83714 45.7342 10.9455C46.0212 11.3226 46.3414 11.672 46.6846 11.9838C45.3614 13.59 44.208 15.3892 43.2397 17.3481H38.6964C36.9432 17.3481 35.5168 18.7744 35.5168 20.5276C35.5168 22.2808 36.9432 23.7071 38.6964 23.7071H40.9097C40.3255 25.9906 39.9642 28.3441 39.8403 30.7243C39.7543 32.3826 38.3774 33.6815 36.7058 33.6815H27.976C26.2882 33.6815 24.6354 33.0986 23.3224 32.0407L18.4271 28.0932C16.9012 26.8633 14.8551 26.625 13.0866 27.471C11.3181 28.3171 10.2194 30.0604 10.2194 32.0207V55.3098C8.90903 54.7668 7.61683 54.177 6.34684 53.5407C4.18586 52.458 1.54661 53.3354 0.463937 55.4963C-0.618734 57.6572 0.258484 60.2963 2.41947 61.3792C11.8643 66.1116 22.3782 68.613 32.8246 68.613C39.6205 68.613 46.4098 67.5676 53.0035 65.5059C53.5594 65.3321 53.8692 64.7405 53.6954 64.1846C53.5216 63.6286 52.9299 63.3192 52.3741 63.4928C45.9843 65.4906 39.4069 66.5038 32.8246 66.5038C22.7045 66.5038 12.5175 64.0797 3.36447 59.4935C2.24327 58.9316 1.7882 57.5625 2.35 56.4414C2.91166 55.3202 4.28106 54.8653 5.40212 55.4269C8.84888 57.154 15.8406 59.6968 19.4995 58.5C19.9995 58.5 20.2944 54.5 22.4995 51.5C24.7046 48.5 31.3518 46.5037 38.2254 48.5C45.099 50.4963 45.4619 58 45.9995 58.5C46.5371 59 54.7988 58.1569 60.247 55.4271C61.3682 54.8653 62.7375 55.3205 63.2993 56.4414C63.8611 57.5626 63.4059 58.9317 62.2848 59.4935C60.5801 60.3477 58.8137 61.1383 57.0346 61.8435C56.493 62.0581 56.2281 62.6711 56.4427 63.2125C56.6573 63.7542 57.2704 64.0188 57.8117 63.8044C59.6477 63.0768 61.4704 62.2609 63.2298 61.3793C65.3908 60.2965 66.268 57.6574 65.1852 55.4964C64.1024 53.3357 61.4634 52.4582 59.3023 53.5409C58.0324 54.1772 56.7405 54.7668 55.4303 55.3096V40.6859C55.4303 35.9658 55.8904 31.9563 56.8371 28.428C56.8539 28.3657 56.9114 28.3223 56.9772 28.3223H65.6256C68.3972 28.3223 70.7628 26.6258 71.652 24.0003C72.5407 21.3746 71.693 18.5898 69.4917 16.9054ZM37.6259 20.5276C37.6259 19.9375 38.106 19.4574 38.6961 19.4574H47.4601C48.0502 19.4574 48.5303 19.9375 48.5303 20.5276C48.5303 21.1177 48.0502 21.5977 47.4601 21.5977H38.6961C38.106 21.5977 37.6259 21.1177 37.6259 20.5276ZM37.8345 35.668C38.09 36.1679 38.2254 36.7189 38.2254 37.2935C38.2254 39.2747 36.6134 40.8867 34.6322 40.8867C32.6509 40.8867 31.0389 39.2747 31.0389 37.2935C31.0389 36.7702 31.1522 36.2595 31.3685 35.7907H36.7055C37.0929 35.7907 37.4704 35.7474 37.8345 35.668ZM12.3283 42.8449C12.4404 42.8345 12.5529 42.8273 12.6662 42.8273C14.6475 42.8273 16.2595 44.4393 16.2595 46.4206C16.2595 48.4019 14.6475 50.0138 12.6662 50.0138C12.5529 50.0138 12.4404 50.0068 12.3283 49.9963V42.8449ZM53.3204 42.2353C52.9269 42.3792 52.5094 42.4555 52.0875 42.4555C50.1063 42.4555 48.4943 40.8437 48.4943 38.8623C48.4943 36.8809 50.1063 35.269 52.0875 35.269C52.5836 35.269 53.0685 35.3725 53.5174 35.5679C53.386 37.1853 53.3204 38.8869 53.3204 40.6858V42.2353ZM69.6535 23.3235C69.1805 24.7203 67.8738 26.2128 65.6251 26.2128H63.1263C62.0376 25.1577 61.419 23.7108 61.419 22.1867C61.419 19.572 63.2644 17.2943 65.7761 16.719L68.21 18.5806C69.9958 19.9471 70.1266 21.9267 69.6535 23.3235Z" fill="#A1B3D6" fill-opacity="0.4"/>
<path d="M62.5013 60.5L57.5013 63C56.5013 63.5 43.5012 67 38.0012 67.5C32.5012 68 26.5012 67.5 21.5012 66.5C16.5012 65.5 7.50125 63.5 4.00125 61.5C0.501254 59.5 1.00125 58.5 1.00125 57C1.00125 55.5 2.50125 54.5 4.50125 54.5C6.50125 54.5 13.5013 57.5 20.0013 59.5C26.5013 61.5 33.5013 60.5 38.5013 60.5C43.5013 60.5 51.0013 58.5 56.0013 56C61.0013 53.5 61.0013 54.5 63.0013 55C64.6013 55.4 64.6679 57.5 64.5013 58.5L62.5013 60.5Z" fill="#5FA9FF"/>
<path d="M69.4917 16.9054L59.3978 9.18506C58.3815 8.40755 57.1172 7.97948 55.8376 7.97948H53.4049C53.1558 7.27383 52.7816 6.58477 52.3006 5.95125C50.5207 3.61378 47.3359 2.67412 45.6186 3.98011C44.783 4.61545 44.3267 5.77575 44.3669 7.16344C44.4055 8.49403 44.891 9.83714 45.7342 10.9455C46.0212 11.3226 46.3414 11.672 46.6846 11.9838C45.3614 13.59 44.208 15.3892 43.2397 17.3481H38.6964C36.9432 17.3481 35.5168 18.7744 35.5168 20.5276C35.5168 22.2808 36.9432 23.7071 38.6964 23.7071H40.9097C40.3255 25.9906 39.9642 28.3441 39.8403 30.7243C39.7543 32.3826 38.3774 33.6815 36.7058 33.6815H27.976C26.2882 33.6815 24.6354 33.0986 23.3224 32.0407L18.4271 28.0932C16.9012 26.8633 14.8551 26.625 13.0866 27.471C11.3181 28.3171 10.2194 30.0604 10.2194 32.0207V55.3098C8.90903 54.7668 7.61683 54.177 6.34684 53.5407C4.18586 52.458 1.54661 53.3354 0.463937 55.4963C-0.618734 57.6572 0.258484 60.2963 2.41947 61.3792C11.8643 66.1116 22.3782 68.613 32.8246 68.613C39.6205 68.613 46.4098 67.5676 53.0035 65.5059C53.5594 65.3321 53.8692 64.7405 53.6954 64.1846C53.5216 63.6286 52.9299 63.3192 52.3741 63.4928C45.9842 65.4906 39.4069 66.5038 32.8246 66.5038C22.7045 66.5038 12.5175 64.0797 3.36447 59.4935C2.24327 58.9316 1.7882 57.5625 2.35 56.4414C2.91166 55.3202 4.28106 54.8653 5.40212 55.4269C13.9168 59.6933 23.4055 61.9554 32.8246 61.9554C42.591 61.9554 52.0552 59.5316 60.247 55.4271C61.3682 54.8653 62.7375 55.3205 63.2993 56.4414C63.8611 57.5626 63.4059 58.9317 62.2848 59.4935C60.5801 60.3477 58.8137 61.1383 57.0346 61.8435C56.493 62.0581 56.2281 62.6711 56.4427 63.2125C56.6573 63.7542 57.2704 64.0188 57.8117 63.8044C59.6477 63.0768 61.4704 62.2609 63.2298 61.3793C65.3908 60.2965 66.268 57.6574 65.1852 55.4964C64.1024 53.3357 61.4634 52.4582 59.3023 53.5409C58.0324 54.1772 56.7405 54.7668 55.4303 55.3096V40.6859C55.4303 35.9658 55.8904 31.9563 56.8371 28.428C56.8539 28.3657 56.9114 28.3223 56.9772 28.3223H65.6256C68.3972 28.3223 70.7628 26.6258 71.652 24.0003C72.5407 21.3746 71.693 18.5898 69.4917 16.9054ZM37.6259 20.5276C37.6259 19.9375 38.106 19.4574 38.6961 19.4574H47.4601C48.0502 19.4574 48.5303 19.9375 48.5303 20.5276C48.5303 21.1177 48.0502 21.5977 47.4601 21.5977H38.6961C38.106 21.5977 37.6259 21.1177 37.6259 20.5276ZM37.8345 35.668C38.09 36.1679 38.2254 36.7189 38.2254 37.2935C38.2254 39.2747 36.6134 40.8867 34.6322 40.8867C32.6509 40.8867 31.0389 39.2747 31.0389 37.2935C31.0389 36.7702 31.1523 36.2595 31.3685 35.7907H36.7055C37.0929 35.7907 37.4704 35.7474 37.8345 35.668ZM12.3283 42.8449C12.4404 42.8345 12.5529 42.8273 12.6662 42.8273C14.6475 42.8273 16.2595 44.4393 16.2595 46.4206C16.2595 48.4019 14.6475 50.0138 12.6662 50.0138C12.5529 50.0138 12.4404 50.0068 12.3283 49.9963V42.8449ZM53.3204 42.2353C52.9269 42.3792 52.5094 42.4555 52.0875 42.4555C50.1063 42.4555 48.4943 40.8437 48.4943 38.8623C48.4943 36.8809 50.1063 35.269 52.0875 35.269C52.5836 35.269 53.0685 35.3725 53.5174 35.5679C53.386 37.1853 53.3204 38.8869 53.3204 40.6858V42.2353ZM54.7992 27.8816C54.3355 29.6099 53.9843 31.4439 53.7399 33.4046C53.2077 33.2435 52.652 33.1598 52.0875 33.1598C48.943 33.1598 46.3849 35.718 46.3849 38.8624C46.3849 42.0068 48.943 44.565 52.0875 44.565C52.5035 44.565 52.9166 44.5165 53.3204 44.4271V56.1358C51.1771 56.9301 48.9914 57.6004 46.7781 58.1434C46.7675 51.946 41.7229 46.9073 35.523 46.9073H30.1258C28.9115 46.9073 27.7175 47.0995 26.577 47.4787C26.0242 47.6624 25.7251 48.2594 25.9089 48.8122C26.0927 49.365 26.6898 49.664 27.2425 49.4803C28.168 49.1726 29.1381 49.0167 30.1258 49.0167H35.523C40.5662 49.0167 44.6693 53.1197 44.6693 58.1629V58.6218C40.7631 59.4312 36.7874 59.8459 32.8241 59.8459C28.8612 59.8459 24.8857 59.4312 20.9796 58.6219V58.1629C20.9796 55.8273 21.8599 53.6036 23.4584 51.9016C23.857 51.4769 23.8362 50.8095 23.4115 50.4107C22.987 50.0122 22.3195 50.033 21.9206 50.4575C19.9579 52.5475 18.8754 55.2765 18.8706 58.1435C16.6573 57.6006 14.4715 56.9302 12.3283 56.1361V52.1125C12.4407 52.1191 12.5532 52.1235 12.6662 52.1235C15.8106 52.1235 18.3689 49.5654 18.3689 46.4209C18.3689 43.2765 15.8106 40.7182 12.6662 40.7182C12.5533 40.7182 12.4407 40.7226 12.3283 40.7292V32.0206C12.3283 30.8628 12.952 29.8734 13.9966 29.3736C15.0408 28.8741 16.2021 29.0092 17.1028 29.7353L21.9983 33.6828C23.6852 35.0421 25.8081 35.7907 27.9757 35.7907H29.1339C29.001 36.2772 28.9297 36.7812 28.9297 37.2935C28.9297 40.4378 31.4879 42.9961 34.6323 42.9961C37.7767 42.9961 40.3349 40.4378 40.3349 37.2935C40.3349 36.4188 40.1406 35.5774 39.7672 34.81C41.0196 33.9134 41.8614 32.4792 41.9468 30.8336C42.0729 28.4107 42.4588 26.0177 43.0905 23.707H47.4602C49.2134 23.707 50.6398 22.2806 50.6398 20.5275C50.6398 18.7743 49.2134 17.3479 47.4602 17.3479H45.616C46.5787 15.5752 47.7092 13.9596 48.9936 12.5345C49.2017 12.3036 49.2975 11.9925 49.255 11.6847C49.2127 11.3768 49.0367 11.1032 48.774 10.937C48.275 10.6214 47.8044 10.1827 47.4129 9.66825C46.8426 8.91858 46.5009 7.98342 46.4755 7.10241C46.4535 6.34275 46.6705 5.83017 46.8954 5.65917C47.4587 5.23083 49.3744 5.59027 50.6216 7.22798C51.1029 7.86164 51.4325 8.56012 51.5748 9.24792C51.6762 9.73758 52.1075 10.0889 52.6075 10.0889H55.8377C56.6567 10.0889 57.4659 10.3629 58.1164 10.8605L63.7778 15.1905C61.1266 16.4344 59.3099 19.1448 59.3099 22.1867C59.3099 23.6254 59.7107 25.0137 60.445 26.2128H56.9766C55.9579 26.2128 55.0626 26.8992 54.7992 27.8816ZM69.6535 23.3235C69.1805 24.7203 67.8738 26.2128 65.6251 26.2128H63.1263C62.0376 25.1577 61.419 23.7108 61.419 22.1867C61.419 19.572 63.2644 17.2943 65.7761 16.719L68.21 18.5806C69.9958 19.9471 70.1266 21.9267 69.6535 23.3235Z" fill="#222A3F" stroke="#222A3F" stroke-width="0.3"/>
<path d="M54.9062 12.8398C54.3238 12.8398 53.8516 13.3121 53.8516 13.8945V15.0422C53.8516 15.6246 54.3238 16.0969 54.9062 16.0969C55.4887 16.0969 55.9609 15.6246 55.9609 15.0422V13.8945C55.9609 13.3121 55.4887 12.8398 54.9062 12.8398Z" fill="#222A3F"/>
</g>
<defs>
<clipPath id="clip0_14_13057">
<rect width="72" height="72" fill="white"/>
</clipPath>
</defs>
</svg>
