<svg width="40" height="40" viewBox="0 0 40 40" fill="none" xmlns="http://www.w3.org/2000/svg">
<g clip-path="url(#clip0_14_12815)">
<path d="M3 31.5H11C11 30.7 11.3333 28.8333 11.5 28L14.5 24.5L18 20C18.1667 19.6667 18.5 18.9 18.5 18.5C18.5 18 17 17.5 16 17.5C15.2 17.5 14 18.5 13.5 19V11C13.5 10.5 13 9 12 9C11.2 9 10.6667 9.33333 10.5 9.5C10.5 9.33333 10.4 8.8 10 8C9.5 7 9 7 8 7C7.2 7 7 8 7 8.5C6.83333 9 6.4 9.90001 6 9.50001C5.5 9.00001 4.5 9.50001 4 10C3.5 10.5 3.5 11 2 11C0.8 11 0.5 12.3333 0.5 13V24C0.5 25 2 27.5 2.5 28.5C2.9 29.3 3 30.8333 3 31.5Z" fill="#D9D8E4" fill-opacity="0.5"/>
<path d="M37 31.5H29C29 30.7 28.6667 28.8333 28.5 28L25.5 24.5L22 20C21.8333 19.6667 21.5 18.9 21.5 18.5C21.5 18 23 17.5 24 17.5C24.8 17.5 26 18.5 26.5 19V11C26.5 10.5 27 9 28 9C28.8 9 29.3333 9.33333 29.5 9.5C29.5 9.33333 29.6 8.8 30 8C30.5 7 31 7 32 7C32.8 7 33 8 33 8.5C33.1667 9 33.6 9.90001 34 9.50001C34.5 9.00001 35.5 9.50001 36 10C36.5 10.5 36.5 11 38 11C39.2 11 39.5 12.3333 39.5 13V24C39.5 25 38 27.5 37.5 28.5C37.1 29.3 37 30.8333 37 31.5Z" fill="#D9D8E4" fill-opacity="0.5"/>
<path d="M15.5 26L13.5 23.5L11 26L13.5 28.5L15.5 26Z" fill="#5FA9FF"/>
<path d="M21 4.5C21.4 4.1 22.1667 3 22.5 2.5C22.6667 2.83333 23.1 3.6 23.5 4C23.9 4.4 25.3333 5.5 26 6C25.5 6.33333 24.4 7.1 24 7.5C23.6 7.9 22.8333 9.33333 22.5 10C22.1667 9.66667 21.4 8.8 21 8C20.6 7.2 19.5 6.33333 19 6C19.5 5.66667 20.6 4.9 21 4.5Z" fill="#5FA9FF"/>
<path d="M14.2415 23.66C14.8815 22.86 15.4815 22.11 16.0815 21.36C16.7015 20.58 17.3215 19.79 17.9515 19.02C18.1115 18.82 18.1015 18.7 17.9015 18.53C17.0015 17.8 15.6815 17.8 14.8015 18.55C14.5315 18.78 14.2915 19.03 14.0515 19.29C13.9815 19.37 13.9315 19.51 13.9315 19.62C13.9215 20.17 13.9315 20.72 13.9215 21.28C13.9215 21.7 13.7115 21.92 13.3615 21.92C13.0215 21.91 12.8215 21.69 12.8215 21.29C12.8215 19.33 12.8215 17.37 12.8215 15.41C12.8215 15.03 13.0415 14.77 13.3615 14.76C13.6815 14.75 13.9215 15.01 13.9215 15.41C13.9215 16.07 13.9215 16.72 13.9215 17.38C13.9215 17.48 13.9215 17.58 13.9215 17.76C14.0615 17.67 14.1515 17.63 14.2215 17.57C15.6015 16.54 17.4915 16.63 18.7615 17.8C19.3415 18.33 19.3915 19.01 18.9015 19.63C17.6415 21.22 16.3815 22.8 15.1115 24.38C14.9415 24.59 14.9715 24.71 15.1715 24.83C15.4615 25.01 15.7515 25.2 16.0515 25.34C16.3715 25.49 16.6315 25.68 16.6315 26.07C16.6315 26.44 16.4115 26.65 16.0815 26.78C15.0915 27.18 14.4215 27.89 14.0615 28.9C13.9415 29.24 13.6815 29.42 13.3515 29.42C13.0415 29.42 12.8115 29.24 12.6715 28.91C12.5515 28.63 12.4115 28.35 12.2515 28.01C11.9315 28.48 11.7815 28.93 11.7215 29.4C11.6615 29.89 11.6515 30.39 11.6515 30.88C11.6515 31.01 11.7115 31.16 11.8015 31.25C12.0415 31.52 12.1715 31.83 12.1715 32.18C12.1815 32.6 12.1815 33.02 12.1715 33.44C12.1615 33.78 12.0415 34.08 11.8115 34.35C11.7215 34.46 11.6515 34.63 11.6515 34.77C11.6415 35.71 11.6515 36.65 11.6415 37.6C11.6415 38.09 11.2415 38.36 10.8415 38.17C10.5915 38.05 10.5315 37.83 10.5315 37.57C10.5315 36.76 10.5315 35.95 10.5315 35.14C10.5315 34.73 10.5315 34.73 10.1115 34.73C9.83155 34.73 9.56155 34.73 9.28155 34.73C8.92155 34.73 8.68155 34.51 8.67155 34.19C8.66155 33.84 8.87155 33.61 9.25155 33.6C9.74155 33.58 10.2415 33.59 10.7315 33.6C10.9615 33.61 11.0315 33.53 11.0215 33.3C11.0015 33 11.0215 32.69 11.0215 32.39C11.0215 32.01 11.0215 32.01 10.6515 32.01C9.52155 32.01 8.38155 32.01 7.25155 32.01C5.91155 32.01 4.57155 32.02 3.22155 32C2.94155 32 2.85155 32.09 2.87155 32.36C2.89155 32.67 2.89155 32.99 2.87155 33.3C2.86155 33.53 2.95155 33.59 3.17155 33.59C4.12155 33.58 5.07155 33.59 6.03155 33.59C6.13155 33.59 6.22155 33.59 6.32155 33.59C6.76155 33.6 7.03155 33.82 7.03155 34.16C7.03155 34.5 6.75155 34.72 6.31155 34.72C5.45155 34.72 4.60155 34.73 3.74155 34.71C3.48155 34.71 3.39155 34.77 3.40155 35.04C3.42155 35.86 3.42155 36.68 3.40155 37.5C3.39155 37.71 3.30155 37.96 3.15155 38.1C3.04155 38.2 2.77155 38.2 2.60155 38.15C2.37155 38.09 2.28155 37.88 2.28155 37.63C2.28155 36.7 2.28155 35.76 2.28155 34.83C2.28155 34.62 2.22155 34.47 2.09155 34.29C1.92155 34.04 1.80155 33.73 1.77155 33.44C1.72155 33.02 1.75155 32.58 1.76155 32.16C1.77155 31.79 1.88155 31.47 2.15155 31.21C2.21155 31.16 2.27155 31.07 2.27155 31C2.26155 30.33 2.33155 29.65 2.14155 28.99C1.98155 28.44 1.72155 27.96 1.38155 27.5C0.461547 26.26 0.021547 24.85 0.011547 23.32C-0.00845299 19.7 0.00154701 16.08 0.011547 12.47C0.011547 11.16 1.04155 10.15 2.33155 10.23C2.63155 10.25 2.93155 10.37 3.26155 10.44C3.43155 9.77 3.80155 9.24 4.44155 8.93C5.08155 8.62 5.73155 8.67 6.40155 8.94C6.39155 7.54 6.97155 6.62 8.38155 6.4C9.01155 6.3 9.58155 6.54 10.0515 6.97C10.5215 7.41 10.7215 7.97 10.7415 8.58C11.0715 8.52 11.3715 8.43 11.6615 8.41C12.8815 8.35 13.8615 9.24 13.9015 10.46C13.9215 11.14 13.9115 11.81 13.9115 12.49C13.9115 12.89 13.7015 13.11 13.3615 13.11C13.0215 13.11 12.8115 12.88 12.8115 12.49C12.8115 11.87 12.8215 11.25 12.8115 10.63C12.7915 9.76 11.9915 9.26 11.2615 9.66C10.9915 9.81 10.8215 10.05 10.7615 10.35C10.7315 10.5 10.7315 10.65 10.7315 10.8C10.7315 12.84 10.7315 14.87 10.7315 16.91C10.7315 17.03 10.7315 17.16 10.7215 17.28C10.6815 17.6 10.4815 17.77 10.1615 17.76C9.87155 17.75 9.66155 17.57 9.63155 17.27C9.62155 17.16 9.62155 17.04 9.62155 16.93C9.62155 14.19 9.62155 11.45 9.62155 8.7C9.62155 8.39 9.57155 8.1 9.36155 7.85C9.06155 7.5 8.68155 7.45 8.27155 7.54C7.90155 7.63 7.60155 8.01 7.56155 8.4C7.54155 8.54 7.54155 8.69 7.54155 8.83C7.54155 11.53 7.54155 14.24 7.54155 16.94C7.54155 17.06 7.54155 17.19 7.52155 17.31C7.47155 17.62 7.26155 17.79 6.94155 17.77C6.66155 17.76 6.45155 17.56 6.42155 17.26C6.41155 17.17 6.42155 17.07 6.42155 16.97C6.42155 14.96 6.42155 12.95 6.42155 10.94C6.42155 10.34 6.11155 9.95 5.56155 9.83C5.00155 9.72 4.43155 10.13 4.37155 10.7C4.36155 10.83 4.36155 10.97 4.36155 11.1C4.36155 13.09 4.36155 15.08 4.36155 17.07C4.36155 17.51 4.18155 17.74 3.84155 17.75C3.47155 17.77 3.23155 17.53 3.23155 17.13C3.23155 16.26 3.23155 15.4 3.23155 14.53C3.23155 13.83 3.23155 13.12 3.23155 12.42C3.23155 11.76 2.82155 11.34 2.21155 11.34C1.60155 11.34 1.18155 11.78 1.18155 12.42C1.18155 16.09 1.17155 19.77 1.18155 23.44C1.18155 24.75 1.63155 25.91 2.41155 26.95C3.14155 27.92 3.44155 29.03 3.42155 30.24C3.41155 30.86 3.42155 30.86 4.04155 30.86C6.09155 30.86 8.13155 30.86 10.1815 30.86C10.5415 30.86 10.5515 30.86 10.5415 30.5C10.5215 29.26 10.6515 28.49 11.4015 27.14C11.1315 27 10.8415 26.88 10.5915 26.72C10.4315 26.62 10.2615 26.48 10.1815 26.32C9.99155 25.92 10.1815 25.53 10.6515 25.35C11.1415 25.15 11.6115 24.89 11.9315 24.47C12.2215 24.09 12.4615 23.66 12.6815 23.24C12.8615 22.88 13.0715 22.69 13.4115 22.71C13.7315 22.72 13.9615 22.91 14.0915 23.27C14.1115 23.38 14.1615 23.49 14.2415 23.66ZM13.4015 27.59C13.6115 27.33 13.8315 27.04 14.0815 26.78C14.3315 26.53 14.6215 26.31 14.8615 26.1C14.3515 25.58 13.8415 25.06 13.3715 24.58C12.8915 25.07 12.3815 25.59 11.9115 26.07C12.3815 26.55 12.8915 27.07 13.4015 27.59Z" fill="#222A3F" stroke="#222A3F" stroke-width="0.2"/>
<path d="M26.0818 17.7602C26.0818 17.5602 26.0818 17.4502 26.0818 17.3402C26.0818 15.1002 26.0818 12.8702 26.0818 10.6302C26.0818 9.70021 26.4818 9.02021 27.3118 8.61021C27.8518 8.34021 28.4118 8.35021 28.9818 8.53021C29.0518 8.55021 29.1218 8.58021 29.1918 8.60021C29.2018 8.60021 29.2118 8.60021 29.2618 8.58021C29.2918 7.79021 29.6118 7.13021 30.3118 6.70021C30.7218 6.45021 31.1718 6.34021 31.6518 6.39021C32.2618 6.46021 32.7718 6.74021 33.1518 7.23021C33.5318 7.72021 33.6118 8.30021 33.6018 8.93021C34.2818 8.66021 34.9318 8.60021 35.5618 8.92021C36.1918 9.23021 36.5718 9.74021 36.7518 10.4502C36.8718 10.4102 36.9918 10.3802 37.1018 10.3402C38.2118 9.92021 39.5118 10.5402 39.8518 11.6802C39.9418 11.9802 39.9918 12.2902 39.9918 12.6002C40.0018 14.2602 40.0018 15.9102 39.9918 17.5702C39.9918 17.7302 39.9618 17.9402 39.8618 18.0502C39.7418 18.1802 39.5218 18.3102 39.3618 18.2902C39.1918 18.2702 39.0218 18.0902 38.9018 17.9402C38.8318 17.8502 38.8518 17.6902 38.8518 17.5502C38.8518 15.8202 38.8518 14.0802 38.8518 12.3502C38.8518 11.9002 38.5518 11.5002 38.1418 11.3802C37.7018 11.2502 37.2218 11.3902 36.9818 11.7802C36.8618 11.9702 36.8018 12.2202 36.8018 12.4502C36.7818 14.0002 36.7918 15.5502 36.7918 17.1102C36.7918 17.5202 36.5818 17.7602 36.2418 17.7702C35.9418 17.7802 35.7318 17.6202 35.6718 17.3202C35.6518 17.2102 35.6518 17.0902 35.6518 16.9802C35.6518 14.9702 35.6518 12.9602 35.6518 10.9502C35.6518 10.4002 35.3718 9.99021 34.9418 9.87021C34.2218 9.67021 33.6018 10.1402 33.5918 10.9002C33.5818 12.3202 33.5918 13.7402 33.5918 15.1602C33.5918 15.8402 33.5918 16.5102 33.5918 17.1902C33.5918 17.4502 33.4718 17.6502 33.2218 17.7402C32.9818 17.8302 32.6818 17.7402 32.5718 17.5202C32.5018 17.3702 32.4718 17.1702 32.4718 17.0002C32.4618 14.2602 32.4718 11.5202 32.4618 8.77021C32.4618 8.57021 32.4518 8.36021 32.3918 8.18021C32.2218 7.67021 31.7418 7.42021 31.1818 7.52021C30.7518 7.60021 30.4018 8.04021 30.3918 8.55021C30.3818 9.30021 30.3918 10.0502 30.3918 10.8102C30.3918 12.9102 30.3918 15.0202 30.3918 17.1202C30.3918 17.5402 30.1718 17.7702 29.8018 17.7602C29.5318 17.7502 29.3318 17.5902 29.2918 17.3202C29.2718 17.2102 29.2718 17.0902 29.2718 16.9802C29.2718 14.9002 29.2718 12.8302 29.2718 10.7502C29.2718 10.4302 29.2418 10.1202 29.0118 9.87021C28.7118 9.55021 28.3518 9.43021 27.9218 9.56021C27.4618 9.71021 27.2418 10.0502 27.1918 10.5202C27.1818 10.6202 27.1818 10.7302 27.1818 10.8302C27.1818 14.2402 27.1818 17.6502 27.1818 21.0502C27.1818 21.1602 27.1818 21.2802 27.1718 21.3902C27.1418 21.6902 26.9118 21.8902 26.6118 21.8902C26.3118 21.8902 26.0818 21.6902 26.0718 21.3802C26.0518 20.8402 26.0518 20.2902 26.0718 19.7502C26.0818 19.4802 25.9918 19.2902 25.8018 19.1002C25.3318 18.6402 24.8818 18.1602 24.1918 18.0202C23.3718 17.8502 22.6518 18.0302 22.0118 18.5702C21.8418 18.7102 21.9118 18.8302 22.0118 18.9602C22.8618 20.0302 23.7118 21.1102 24.5718 22.1702C25.7518 23.6402 26.9418 25.1002 28.1318 26.5502C29.0318 27.6402 29.4618 28.8802 29.4418 30.2902C29.4318 30.9302 29.3818 30.8502 30.0118 30.8502C32.0818 30.8502 34.1418 30.8502 36.2118 30.8602C36.5018 30.8602 36.5918 30.7802 36.5818 30.4902C36.5318 29.3302 36.7418 28.2402 37.3818 27.2502C37.7018 26.7602 38.0318 26.2702 38.3018 25.7502C38.6418 25.0902 38.8018 24.3702 38.8218 23.6302C38.8418 22.6302 38.8218 21.6302 38.8318 20.6302C38.8318 20.1602 39.1618 19.8802 39.5618 20.0102C39.8318 20.1002 39.9818 20.3002 39.9718 20.5702C39.9418 21.9502 40.0918 23.3302 39.8218 24.7002C39.6218 25.7002 39.2618 26.6202 38.6318 27.4102C37.7918 28.4702 37.6318 29.6802 37.7118 30.9602C37.7118 31.0302 37.7718 31.1202 37.8218 31.1702C38.1018 31.4402 38.2118 31.7702 38.2218 32.1502C38.2318 32.5602 38.2318 32.9702 38.2218 33.3802C38.2118 33.7502 38.0918 34.0802 37.8218 34.3602C37.7418 34.4402 37.7018 34.5902 37.7018 34.7102C37.6918 35.6302 37.7018 36.5602 37.7018 37.4802C37.7018 37.9302 37.4918 38.1902 37.1418 38.1902C36.7918 38.1902 36.5818 37.9302 36.5718 37.4802C36.5718 36.6502 36.5618 35.8202 36.5718 35.0002C36.5718 34.7602 36.5118 34.6902 36.2718 34.6902C34.1018 34.7002 31.9318 34.7002 29.7618 34.6902C29.5118 34.6902 29.4318 34.7602 29.4418 35.0102C29.4518 35.8702 29.4518 36.7202 29.4418 37.5802C29.4318 38.0702 29.0218 38.3302 28.6318 38.1202C28.4018 38.0002 28.3318 37.7902 28.3318 37.5402C28.3318 36.6102 28.3418 35.6702 28.3218 34.7402C28.3218 34.5902 28.2418 34.4102 28.1518 34.2902C27.9518 34.0302 27.8118 33.7602 27.8118 33.4302C27.8018 32.9802 27.8018 32.5302 27.8118 32.0902C27.8218 31.7602 27.9518 31.4702 28.1718 31.2102C28.2618 31.1102 28.3218 30.9502 28.3318 30.8102C28.3618 30.0302 28.3718 29.2302 28.0218 28.5202C27.7718 28.0102 27.4718 27.5202 27.1218 27.0802C25.2418 24.7102 23.3318 22.3602 21.4418 20.0102C21.2718 19.8002 21.1018 19.6002 20.9618 19.3702C20.6518 18.8702 20.7418 18.2402 21.1618 17.8302C22.4418 16.5802 24.3718 16.4602 25.8018 17.5402C25.8718 17.6302 25.9418 17.6702 26.0818 17.7602ZM33.0518 31.9902C31.8018 31.9902 30.5618 32.0002 29.3118 31.9902C29.0618 31.9902 28.9418 32.0402 28.9618 32.3202C28.9818 32.6302 28.9818 32.9502 28.9618 33.2602C28.9418 33.5102 29.0318 33.5902 29.2818 33.5802C30.5018 33.5702 31.7218 33.5702 32.9318 33.5702C34.2218 33.5702 35.5218 33.5702 36.8118 33.5702C37.0318 33.5702 37.1218 33.5002 37.1118 33.2802C37.1018 32.9702 37.0918 32.6502 37.1118 32.3402C37.1318 32.0702 37.0318 31.9802 36.7518 31.9802C35.5318 32.0002 34.2918 31.9902 33.0518 31.9902Z" fill="#222A3F" stroke="#222A3F" stroke-width="0.2"/>
<path d="M22.4228 10.58C22.0628 10.58 21.7928 10.4 21.6728 10.04C21.1528 8.53004 20.1428 7.51004 18.6628 6.93004C18.3028 6.79004 18.1328 6.54004 18.1328 6.20004C18.1328 5.83004 18.3228 5.59004 18.6528 5.46004C20.1428 4.88004 21.1528 3.85004 21.6728 2.33004C21.7828 2.01004 22.1028 1.79004 22.4128 1.79004C22.7628 1.79004 23.0228 2.04004 23.2028 2.43004C23.4328 2.93004 23.6728 3.43004 23.9928 3.87004C24.5228 4.61004 25.2728 5.10004 26.1128 5.44004C26.5428 5.62004 26.7128 5.84004 26.7028 6.22004C26.6928 6.61004 26.4528 6.83004 26.1028 6.97004C24.6828 7.54004 23.7028 8.53004 23.1928 9.99005C23.0428 10.38 22.7928 10.58 22.4228 10.58ZM22.4128 3.51004C21.7828 4.69004 20.9328 5.55004 19.8528 6.15004C20.3428 6.55004 20.8628 6.90004 21.2928 7.33004C21.7228 7.76004 22.0528 8.28004 22.4628 8.80004C23.0528 7.70004 23.9128 6.83004 25.0628 6.18004C23.8828 5.55004 23.0528 4.67004 22.4128 3.51004Z" fill="#222A3F" stroke="#222A3F" stroke-width="0.2"/>
</g>
<defs>
<clipPath id="clip0_14_12815">
<rect width="40" height="40" fill="white"/>
</clipPath>
</defs>
</svg>
