<svg width="40" height="40" viewBox="0 0 40 40" fill="none" xmlns="http://www.w3.org/2000/svg">
<path d="M8 28.5L7.5 36.5L7 37.5L8 37V36H8.5H11L14 37C16.3333 37.6667 21.4 39 23 39C24.6 39 25.6667 38.3333 26 38L37 30V28.5L35 27L27 31L25.5 30H21L20 29.5L17 27.5C16.6667 27.3333 15.7 27 14.5 27C13.3 27 11 27.6667 10 28H8L7 26.5L8 28.5Z" fill="#D9D8E4"/>
<path d="M23.5 25.5H27L27.5 24V18.5C28 18.3333 29.2 17.8 30 17C31 16 31.5 13.5 31.5 13C31.5 12.5 31.5 12 31 10C30.6 8.4 28.8333 7.33333 28 7L27.5 8V13C27.5 14 26.5 14.5 25 14.5C23.8 14.5 23.1667 13.1667 23 12.5V8L22.5 7L21 8C20.3333 8.83333 19 10.8 19 12C19 13.5 19.5 14.5 20 16C20.4 17.2 22.1667 18.1667 23 18.5V22.5L23.5 25.5Z" fill="#5FA9FF"/>
<path d="M36.6766 9.96764H36.2712C36.0315 9.12586 35.6967 8.31823 35.2711 7.55465L35.5593 7.26638C35.889 6.93678 36.0705 6.49718 36.0705 6.02852C36.0705 5.55986 35.889 5.12034 35.559 4.79035L33.6388 2.87235C33.309 2.54056 32.8689 2.35791 32.3993 2.35791C31.9299 2.35791 31.4897 2.54056 31.1615 2.87071L30.8737 3.15859C30.1095 2.73165 29.3016 2.39619 28.4604 2.15659V1.75121C28.4604 0.785605 27.6749 0 26.7092 0H23.9943C23.0287 0 22.2431 0.785605 22.2431 1.75121V2.15659C21.402 2.39611 20.5936 2.73165 19.8279 3.1589L19.5414 2.87235C19.2115 2.54056 18.7713 2.35791 18.3019 2.35799C17.8324 2.35799 17.3923 2.54072 17.0642 2.87079L15.1443 4.79074C14.8145 5.12034 14.6331 5.55994 14.6331 6.0286C14.6331 6.49726 14.8145 6.93678 15.1442 7.26638L15.4323 7.55457C15.0049 8.32049 14.6699 9.12828 14.4316 9.96764H14.0246C13.059 9.96764 12.2734 10.7532 12.2734 11.7188V14.4361C12.2734 15.4017 13.059 16.1873 14.0246 16.1873H14.4316C14.6699 17.0266 15.0049 17.8344 15.4323 18.6004L15.1442 18.8886C14.8145 19.2182 14.633 19.6578 14.633 20.1264C14.633 20.595 14.8145 21.0346 15.1441 21.3642L17.0625 23.2826C17.3923 23.6144 17.8324 23.797 18.3018 23.797H18.3019C18.7713 23.797 19.2115 23.6144 19.5397 23.2843L19.8279 22.9961C20.5943 23.4237 21.4027 23.7588 22.243 23.997V24.4038C22.243 25.3694 23.0286 26.155 23.9942 26.155H26.7092C27.6748 26.155 28.4604 25.3694 28.4604 24.4038V23.997C29.3009 23.7587 30.1087 23.4238 30.8737 22.9964L31.1599 23.2826C31.4897 23.6144 31.9298 23.797 32.3993 23.797C32.8688 23.797 33.309 23.6143 33.6368 23.2846L35.5593 21.3642C35.8889 21.0345 36.0704 20.5949 36.0704 20.1264C36.0704 19.6577 35.8889 19.2182 35.5593 18.8886L35.271 18.6003C35.6966 17.8367 36.0313 17.0291 36.2711 16.1873H36.6766C37.6422 16.1873 38.4278 15.4017 38.4278 14.4361V11.7188C38.4278 10.7532 37.6423 9.96764 36.6766 9.96764ZM26.898 24.4038C26.898 24.5061 26.8116 24.5925 26.7092 24.5925H23.9943C23.892 24.5925 23.8056 24.5061 23.8056 24.4038V23.3895V18.4644C23.8056 18.1377 23.6023 17.8455 23.296 17.7319C21.1967 16.9533 19.7863 14.9329 19.7863 12.7044C19.7863 10.9382 20.6657 9.28265 22.1383 8.27604C22.2044 8.23088 22.2629 8.19401 22.314 8.16378C22.3112 8.26534 22.304 8.3619 22.3001 8.41229C22.2943 8.49158 22.2896 8.55416 22.2896 8.61627V12.3034C22.2896 13.9958 23.612 15.4092 25.3 15.5212C25.3344 15.5234 25.369 15.5234 25.4034 15.5212C27.0902 15.4093 28.4116 13.9959 28.4116 12.3034V8.61627C28.4116 8.55447 28.407 8.49228 28.4012 8.41346C28.3975 8.36283 28.3903 8.26573 28.3876 8.1637C28.4385 8.19385 28.4966 8.23065 28.5625 8.27573C30.0355 9.28258 30.9149 10.9382 30.9149 12.7043C30.9149 14.9326 29.5053 16.9531 27.4072 17.7319C27.101 17.8456 26.8978 18.1377 26.8978 18.4643V23.3894V24.4038H26.898ZM36.8654 14.4361C36.8654 14.5367 36.7772 14.6249 36.6766 14.6249H35.6646C35.2996 14.6249 34.9832 14.8776 34.9027 15.2336C34.6553 16.3268 34.2268 17.3605 33.6291 18.306C33.4339 18.6148 33.4788 19.0176 33.737 19.2758L34.4546 19.9934C34.5012 20.04 34.5081 20.0967 34.5081 20.1264C34.5081 20.156 34.5012 20.2128 34.4548 20.259L32.5307 22.181C32.4867 22.2252 32.435 22.2345 32.3993 22.2345C32.3638 22.2345 32.3121 22.2252 32.2664 22.1793L31.5489 21.4617C31.2902 21.2031 30.887 21.1586 30.5783 21.3542C29.9114 21.7768 29.2016 22.1121 28.4604 22.3599V18.984C30.8841 17.856 32.4775 15.398 32.4775 12.7042C32.4775 10.4217 31.3436 8.28393 29.4444 6.98576C29.1535 6.78694 28.2687 6.18203 27.4949 6.62741C26.7351 7.0649 26.8108 8.09042 26.8431 8.52838C26.8459 8.56642 26.8486 8.59837 26.8492 8.61627V12.3034C26.8492 13.1586 26.1957 13.8755 25.3518 13.9579C24.5067 13.8754 23.8521 13.1585 23.8521 12.3034L23.852 8.62189C23.8528 8.59837 23.8556 8.56642 23.8584 8.52822C23.891 8.0905 23.9673 7.06552 23.2081 6.6278C22.4346 6.18164 21.5485 6.78678 21.257 6.98576C19.3577 8.28401 18.2238 10.4218 18.2238 12.7043C18.2238 15.3985 19.8181 17.8567 22.2431 18.9843V22.36C21.5018 22.1122 20.7911 21.7767 20.1223 21.3539C19.9937 21.2727 19.849 21.2331 19.705 21.2331C19.5033 21.2331 19.3031 21.3111 19.1524 21.4619L18.4334 22.181C18.3894 22.2253 18.3376 22.2346 18.302 22.2346C18.2663 22.2346 18.2147 22.2253 18.1691 22.1794L16.2491 20.2594C16.2025 20.2128 16.1955 20.156 16.1955 20.1264C16.1955 20.0968 16.2025 20.04 16.2491 19.9934L16.9666 19.2758C17.2249 19.0176 17.2697 18.6148 17.0746 18.306C16.4738 17.3555 16.0454 16.3222 15.8012 15.2349C15.7212 14.8783 15.4045 14.6248 15.039 14.6248H14.0248C13.9243 14.6248 13.8361 14.5366 13.8361 14.436V11.7188C13.8361 11.6164 13.9225 11.53 14.0248 11.53H15.039C15.4045 11.53 15.7212 11.2765 15.8012 10.9199C16.0454 9.83256 16.4737 8.79923 17.0746 7.84878C17.2697 7.54004 17.2249 7.13724 16.9666 6.87897L16.249 6.16141C16.2025 6.11484 16.1955 6.05813 16.1955 6.02844C16.1955 5.99875 16.2025 5.94204 16.2491 5.8954L18.1707 3.97373C18.2147 3.92951 18.2664 3.92021 18.302 3.92021C18.3377 3.92021 18.3894 3.92951 18.435 3.97537L19.1525 4.69293C19.4109 4.95128 19.8137 4.99604 20.1224 4.80089C21.0717 4.20075 22.1061 3.77147 23.1966 3.52514C23.5528 3.44468 23.8057 3.1282 23.8057 2.76313V1.75121C23.8057 1.64886 23.8921 1.56246 23.9945 1.56246H26.7094C26.8117 1.56246 26.8981 1.64886 26.8981 1.75121V2.76329C26.8981 3.12844 27.151 3.44483 27.5072 3.5253C28.5987 3.77186 29.632 4.20091 30.5784 4.80066C30.8873 4.99628 31.2904 4.95175 31.549 4.69316L32.2682 3.97396C32.3121 3.92974 32.3639 3.92045 32.3995 3.92045C32.4351 3.92045 32.4868 3.92974 32.5328 3.97591L34.4547 5.89563C34.5013 5.94219 34.5083 5.99891 34.5083 6.0286C34.5083 6.05828 34.5013 6.115 34.4547 6.16164L33.7372 6.8792C33.4789 7.13747 33.4341 7.54028 33.6292 7.84902C34.2269 8.79454 34.6554 9.82819 34.9029 10.9214C34.9834 11.2774 35.2998 11.5302 35.6648 11.5302H36.6768C36.7791 11.5302 36.8655 11.6166 36.8655 11.7189V14.4361H36.8654Z" fill="#222A3F"/>
<path d="M29.9046 34.3992C29.5995 34.7043 29.5995 35.1989 29.9046 35.5041C30.0572 35.6566 30.2571 35.7329 30.457 35.7329C30.6569 35.7329 30.8568 35.6566 31.0094 35.5041L31.0116 35.5019C31.3167 35.1968 31.3156 34.7032 31.0104 34.3982C30.7053 34.0931 30.2097 34.0943 29.9046 34.3992Z" fill="#222A3F"/>
<path fill-rule="evenodd" clip-rule="evenodd" d="M4.035 27.5202C4.04748 27.5202 4.0599 27.5199 4.07224 27.5193H6.76819C7.04576 27.5193 7.28021 27.7538 7.28021 28.0314V36.2318C7.28021 36.5082 7.04576 36.7417 6.76819 36.7417H4.08305C4.06716 36.7407 4.05114 36.7402 4.035 36.7402C3.60146 36.7402 3.25 37.0917 3.25 37.5252C3.25 37.9588 3.60146 38.3102 4.035 38.3102C4.06828 38.3102 4.10108 38.3082 4.13327 38.3041H6.76819C7.68457 38.3041 8.46354 37.7072 8.73736 36.8824H10.4951C10.6504 36.8824 10.6504 36.8824 10.8309 36.9332C10.8965 36.9518 10.9764 36.9743 11.0795 37.002L19.1648 39.1651C19.516 39.2599 19.8385 39.3533 20.1504 39.4436L20.1642 39.4476L20.1647 39.4478C21.2004 39.7479 22.071 40.0001 22.9784 40.0001C24.0042 40.0001 25.0767 39.6778 26.4874 38.7376L26.4965 38.7315L26.5077 38.7237L28.0512 37.623C28.4026 37.3724 28.4843 36.8846 28.2337 36.5333C27.9832 36.1819 27.4952 36.1003 27.1442 36.3508L25.6108 37.4442C23.5637 38.8058 22.6944 38.5541 20.599 37.9469L20.5945 37.9456C20.2731 37.8525 19.9407 37.7562 19.5705 37.6562L11.4846 35.493C11.3899 35.4676 11.3157 35.4466 11.2547 35.4294C10.9597 35.3463 10.8494 35.3201 10.4952 35.3201H8.84275V28.9434H9.68702C9.69827 28.9434 9.70936 28.9431 9.72061 28.9427L9.76514 28.9408C10.42 28.9128 10.6032 28.8949 11.3534 28.5988C14.254 27.4541 16.493 27.3181 19.3547 30.012L19.3933 30.0483C19.8824 30.5079 20.164 30.6951 20.9942 30.6951H25.2437C25.7425 30.6951 26.1774 30.972 26.4041 31.3799L26.4065 31.3841L26.4118 31.3932C26.5131 31.5805 26.5707 31.7947 26.5707 32.0222C26.5707 32.7527 25.9755 33.347 25.2438 33.347H18.3567C17.9253 33.347 17.5755 33.6968 17.5755 34.1282C17.5755 34.5597 17.9253 34.9095 18.3567 34.9095H25.2438C26.8371 34.9095 28.1332 33.6143 28.1332 32.0222C28.1332 31.8058 28.1085 31.5952 28.0632 31.3923L34.2371 28.2217C34.8215 27.9217 35.6205 27.9538 36.0172 28.5976C36.3681 29.165 36.1751 29.9192 35.5685 30.3517L32.8602 32.2805C32.5087 32.5308 32.4267 33.0186 32.677 33.3701C32.8294 33.5841 33.0699 33.6982 33.314 33.6982C33.4708 33.6982 33.6291 33.6511 33.7665 33.5533L36.4751 31.6242C37.7615 30.7071 38.1358 29.0526 37.3466 27.7768C36.5706 26.5173 34.927 26.1109 33.5233 26.8315L27.321 30.0167C26.7953 29.4722 26.0586 29.1325 25.2437 29.1325H20.9941C20.7561 29.1325 20.698 29.1136 20.6941 29.1123C20.6596 29.0941 20.5507 28.9918 20.4633 28.9096L20.4246 28.8732C16.9865 25.6368 14.0823 25.8419 10.7796 27.1453C10.2453 27.3562 10.235 27.3567 9.69835 27.3796L8.73744 27.3803C8.46369 26.5544 7.68465 25.9568 6.76819 25.9568H4.1372C4.10375 25.9524 4.06964 25.9502 4.035 25.9502C3.60146 25.9502 3.25 26.3017 3.25 26.7352C3.25 27.1687 3.60146 27.5202 4.035 27.5202Z" fill="#222A3F"/>
</svg>
