<?xml version="1.0" encoding="utf-8"?><svg viewBox="0 0 72 72" xmlns="http://www.w3.org/2000/svg" xmlns:xlink="http://www.w3.org/1999/xlink"><style>:root>svg{display:none}:root>svg:target{display:block}</style><svg fill="none" viewBox="0 0 45 47" id="YouTube-hexagon" xmlns="http://www.w3.org/2000/svg"><path d="M38.001 11.104a1 1 0 101-1.732l-1 1.732zM42.987 17a1 1 0 10-2 0h2zM6.016 10.518l-.5-.866.5.866zM25.5 44.268l.5.866-.5-.866zm13.486-7.786l-.5-.866.5.866zm-.5-.866L25 43.402l1 1.732 13.486-7.786-1-1.732zM20 43.402L6.516 35.616l-1 1.732L19 45.134l1-1.732zM4.016 31.286V15.714h-2v15.572h2zm2.5-19.902L20 3.598l-1-1.732L5.516 9.652l1 1.732zM25 3.598l13 7.506 1-1.732-13-7.506-1 1.732zM40.987 17v14.286h2V17h-2zM4.016 15.714a5 5 0 012.5-4.33l-1-1.732a7 7 0 00-3.5 6.062h2zm2.5 19.902a5 5 0 01-2.5-4.33h-2a7 7 0 003.5 6.062l1-1.732zM25 43.402a5 5 0 01-5 0l-1 1.732a7 7 0 007 0l-1-1.732zm14.486-6.054a7 7 0 003.5-6.062h-2a5 5 0 01-2.5 4.33l1 1.732zM20 3.598a5 5 0 015 0l1-1.732a7 7 0 00-7 0l1 1.732z" fill="#C0BFCD"/><circle cx="41.5" cy="12.8" r="1" fill="#C0BFCD"/><g clip-path="url(#aclip0_14_13446)"><path d="M31.59 18.755a2.378 2.378 0 00-1.674-1.674c-1.486-.406-7.428-.406-7.428-.406s-5.942 0-7.428.39a2.427 2.427 0 00-1.673 1.69c-.39 1.485-.39 4.566-.39 4.566s0 3.096.39 4.566c.219.813.86 1.454 1.673 1.673 1.501.407 7.428.407 7.428.407s5.942 0 7.428-.391a2.379 2.379 0 001.674-1.673c.39-1.486.39-4.566.39-4.566s.016-3.097-.39-4.582zm-10.994 7.412v-5.692l4.942 2.846-4.942 2.846z" fill="#C0BFCD"/></g><defs><clipPath id="aclip0_14_13446"><path fill="#fff" transform="translate(12.375 13.375)" d="M0 0h20.25v20.25H0z"/></clipPath></defs></svg><svg viewBox="0 0 32 32" id="arrow-with-point" xmlns="http://www.w3.org/2000/svg"><path stroke-linejoin="round" stroke-width=".6"  d="M24.343 8.929l6.364 6.364a1 1 0 010 1.414l-6.364 6.364a1 1 0 01-1.414-1.414L27.586 17H7a1 1 0 010-2h20.586l-4.657-4.657a1 1 0 011.414-1.414z"/><path stroke-width=".6" d="M3 16a1 1 0 11-2 0 1 1 0 012 0z"/></svg><svg viewBox="0 0 32 32" id="close-circle" xmlns="http://www.w3.org/2000/svg"><path fill="none" opacity=".8" stroke-width="1.778" d="M31.111 16c0 8.346-6.765 15.111-15.111 15.111S.889 24.346.889 16 7.654.889 16 .889 31.111 7.654 31.111 16z"/><path opacity=".8" d="M12.858 11.6l7.542 7.542a.889.889 0 01-1.257 1.257l-7.542-7.542a.889.889 0 011.257-1.257z"/><path opacity=".8" d="M11.601 19.143l7.542-7.542a.889.889 0 011.257 1.257L12.858 20.4a.889.889 0 01-1.257-1.257z"/></svg><svg viewBox="0 0 32 32" id="eye" xmlns="http://www.w3.org/2000/svg"><path fill="none" stroke-linecap="round" stroke-width="1.778"  d="M20.178 7.345c6.007 2.163 10.4 8.36 10.4 8.36s-6.447 9.095-14.4 9.095-14.4-9.095-14.4-9.095 4.393-6.197 10.4-8.36"/><path fill="none" stroke-width="1.778" d="M11.111 15.556v0c0 2.695 2.194 4.889 4.889 4.889s4.889-2.194 4.889-4.889c0-2.695-2.194-4.889-4.889-4.889s-4.889 2.194-4.889 4.889z"/><path stroke-width=".889" d="M16.667 7a.556.556 0 11-1.112 0 .556.556 0 011.112 0z"/></svg><svg viewBox="0 0 32 32" id="facebook-hexagon" xmlns="http://www.w3.org/2000/svg"><path d="M26.554 7.56a.681.681 0 00.681-1.179l-.681 1.179zm3.394 4.014a.681.681 0 00-1.362 0h1.362zM4.777 7.161zM18.043 30.14zm9.182-5.301zm-.34-.59l-9.182 5.301.681 1.179 9.182-5.301-.681-1.179zM14.299 29.55l-9.182-5.301-.681 1.179 9.182 5.301.681-1.179zM3.415 21.301V10.699H2.053v10.602h1.362zm1.702-13.55l9.182-5.301-.681-1.179-9.182 5.301.681 1.179zM17.703 2.45l8.851 5.11.681-1.179-8.851-5.11-.681 1.179zm10.884 9.124v9.727h1.362v-9.727h-1.362zm-25.172-.875c0-1.216.649-2.34 1.702-2.948l-.681-1.179a4.765 4.765 0 00-2.383 4.127h1.362zm1.702 13.55a3.405 3.405 0 01-1.702-2.948H2.053c0 1.703.908 3.276 2.383 4.127l.681-1.179zm12.586 5.301a3.404 3.404 0 01-3.404 0l-.681 1.179a4.768 4.768 0 004.766 0l-.681-1.179zm9.862-4.122a4.765 4.765 0 002.383-4.127h-1.362c0 1.216-.649 2.34-1.702 2.948l.681 1.179zM14.299 2.45a3.404 3.404 0 013.404 0l.681-1.179a4.768 4.768 0 00-4.766 0l.681 1.179zM29.617 8.715a.681.681 0 11-1.362 0 .681.681 0 011.362 0zM17.213 13.293c.015-.017.083-.071.353-.071h.883a.521.521 0 00.521-.52v-1.541a.52.52 0 00-.52-.52l-1.312-.002c-.81 0-1.498.267-1.991.771-.49.502-.75 1.203-.75 2.027v.831h-1.004a.521.521 0 00-.521.52v1.66c0 .287.234.52.521.52h1.004v3.873c0 .287.234.52.521.52h1.721a.521.521 0 00.521-.52v-3.873h1.227a.521.521 0 00.521-.52l.001-1.66a.523.523 0 00-.526-.52H17.16v-.657c0-.214.029-.292.053-.319z"/></svg><svg viewBox="0 0 32 32" id="instagram-hexagon" xmlns="http://www.w3.org/2000/svg"><path d="M26.554 7.56a.681.681 0 00.681-1.179l-.681 1.179zm3.394 4.014a.681.681 0 00-1.362 0h1.362zM4.777 7.161zM18.043 30.14zm9.182-5.301zm-.34-.59l-9.182 5.301.681 1.179 9.182-5.301-.681-1.179zM14.299 29.55l-9.182-5.301-.681 1.179 9.182 5.301.681-1.179zM3.415 21.301V10.699H2.053v10.602h1.362zm1.702-13.55l9.182-5.301-.681-1.179-9.182 5.301.681 1.179zM17.703 2.45l8.851 5.11.681-1.179-8.851-5.11-.681 1.179zm10.884 9.124v9.727h1.362v-9.727h-1.362zm-25.172-.875c0-1.216.649-2.34 1.702-2.948l-.681-1.179a4.765 4.765 0 00-2.383 4.127h1.362zm1.702 13.55a3.405 3.405 0 01-1.702-2.948H2.053c0 1.703.908 3.276 2.383 4.127l.681-1.179zm12.586 5.301a3.404 3.404 0 01-3.404 0l-.681 1.179a4.768 4.768 0 004.766 0l-.681-1.179zm9.862-4.122a4.765 4.765 0 002.383-4.127h-1.362c0 1.216-.649 2.34-1.702 2.948l.681 1.179zM14.299 2.45a3.404 3.404 0 013.404 0l.681-1.179a4.768 4.768 0 00-4.766 0l.681 1.179zM29.617 8.715a.681.681 0 11-1.362 0 .681.681 0 011.362 0zM16 13.702c-1.267 0-2.298 1.031-2.298 2.298s1.031 2.298 2.298 2.298c1.267 0 2.298-1.031 2.298-2.298S17.267 13.702 16 13.702z"/><path d="M20.893 11.107a4.176 4.176 0 00-2.97-1.235h-3.846c-1.119 0-2.174.439-2.97 1.235s-1.235 1.851-1.235 2.97v3.846c0 1.119.439 2.174 1.235 2.97s1.851 1.235 2.97 1.235h3.846c1.119 0 2.174-.439 2.97-1.235s1.235-1.851 1.235-2.97v-3.846a4.176 4.176 0 00-1.235-2.97zM16 19.243c-1.788 0-3.243-1.455-3.243-3.243s1.455-3.243 3.243-3.243c1.788 0 3.243 1.455 3.243 3.243S17.788 19.243 16 19.243zm3.593-6.328a.36.36 0 01-.613-.254.36.36 0 01.359-.359.36.36 0 01.359.359.36.36 0 01-.105.254z"/></svg><svg fill="none" viewBox="0 0 62 62" id="launch-1" xmlns="http://www.w3.org/2000/svg"><path d="M25.5 49c.4-1.6.167-3 0-3.5L25 45l-5 5v-4.5l-6 2 2-6h-4l4-4-.5-1.5c-1 0-3.6.3-6 1.5s-6 5.167-7.5 7h7.5c.4 0-2.167 7.667-3.5 11.5l11.5-3.5-.5 7c1.167-1 3.8-3.2 5-4 1.5-1 3-4.5 3.5-6.5z" fill="#5FA9FF"/><path fill-rule="evenodd" clip-rule="evenodd" d="M37.5 7L55 24.5c-.833 2-2.9 6.3-4.5 7.5-1.6 1.2-13 12.5-18.5 18l-4-2.5L11.5 30l5.5-5.5 14.5-14c1.667-1.167 5.2-3.5 6-3.5zM36 35a9 9 0 100-18 9 9 0 000 18z" fill="#fff"/><path d="M58.888 3.166a7.12 7.12 0 00-6.298-2.009l-2.64.448a41.432 41.432 0 00-22.292 11.393l-16.152 1.475a6.61 6.61 0 00-4.066 1.905 6.606 6.606 0 000 9.331l3.86 3.861a2.613 2.613 0 00.515 2.977l2.94 2.94a11.772 11.772 0 00-3.85.62.882.882 0 00.565 1.67 10.012 10.012 0 014.032-.493 6.755 6.755 0 00-1.504 1.136l-2.737 2.736a.881.881 0 00.653 1.504l3.022-.104-1.67 5.01a.882.882 0 001.116 1.114l5.01-1.67-.105 3.023a.881.881 0 001.505.654l2.735-2.737a6.744 6.744 0 001.136-1.504 9.953 9.953 0 01-2.9 7.906l-3.51 3.51.199-5.748a.881.881 0 00-1.16-.867l-9.888 3.296 3.296-9.888a.882.882 0 00-.867-1.16l-5.747.2 3.511-3.513c.33-.33.685-.638 1.051-.914a.881.881 0 10-1.06-1.409c-.432.325-.848.688-1.238 1.077l-5.092 5.093a.881.881 0 00.654 1.504l6.714-.232-3.452 10.357a.881.881 0 001.115 1.115l10.357-3.452-.232 6.714a.881.881 0 001.504.654l5.092-5.091a11.705 11.705 0 003.45-8.332v-.075l3.045 3.045a2.607 2.607 0 001.855.769c.395 0 .776-.09 1.122-.254l3.86 3.861a6.555 6.555 0 004.666 1.932c1.763 0 3.42-.686 4.666-1.932a6.61 6.61 0 001.905-4.066l1.475-16.153A41.594 41.594 0 0057.477 22c.71-1.608.795-2.164.123-2.5-.672-.336-1.156.441-1.6 1.47-.317.734-.656 1.46-1.016 2.173L38.9 7.06a39.867 39.867 0 0111.317-3.712l2.667-.453a5.377 5.377 0 014.757 1.518 5.377 5.377 0 011.516 4.756l-.452 2.67-.097.543a.881.881 0 101.733.32c.035-.188.069-.376.101-.567l.453-2.671a7.12 7.12 0 00-2.008-6.298zM8.686 17.625a4.844 4.844 0 012.98-1.396l14.04-1.282-13.268 13.267-3.751-3.751a4.84 4.84 0 010-6.838zm13.595 29.078l-1.155 1.155.07-2.054a.882.882 0 00-1.159-.866l-4.54 1.513 1.513-4.54a.882.882 0 00-.867-1.16l-2.054.07 1.155-1.154a4.933 4.933 0 012.367-1.324l5.994 5.994a4.936 4.936 0 01-1.325 2.366zm22.146 6.663a4.804 4.804 0 01-3.419 1.416 4.804 4.804 0 01-3.419-1.416l-3.751-3.752 13.267-13.268-1.281 14.04a4.845 4.845 0 01-1.397 2.98zm9.691-28.595a39.812 39.812 0 01-6.536 8.605L31.969 48.99a.862.862 0 01-1.218 0L13.061 31.3a.862.862 0 010-1.217L28.675 14.47a39.917 39.917 0 018.6-6.544l16.844 16.844z" fill="#222A3F" stroke="#222A3F" stroke-width=".6"/><path d="M29.738 32.316a9.285 9.285 0 006.608 2.737 9.285 9.285 0 006.61-2.737 9.285 9.285 0 002.737-6.609 9.285 9.285 0 00-2.738-6.609 9.285 9.285 0 00-6.609-2.737 9.285 9.285 0 00-6.608 2.737A9.285 9.285 0 0027 25.708c0 2.496.972 4.843 2.738 6.608zm1.246-11.971a7.534 7.534 0 015.362-2.221c2.026 0 3.93.789 5.363 2.22a7.534 7.534 0 012.22 5.363c0 2.026-.788 3.93-2.22 5.363a7.534 7.534 0 01-5.363 2.22 7.534 7.534 0 01-5.362-2.22 7.534 7.534 0 01-2.221-5.363c0-2.025.789-3.93 2.221-5.362z" fill="#222A3F" stroke="#222A3F" stroke-width=".6"/><path d="M33.505 30.151c.721.472 1.252.662 1.902.73v.424a.881.881 0 101.763 0v-.51c1.327-.365 2.177-1.51 2.367-2.64.25-1.48-.554-2.818-1.998-3.329-.814-.287-1.713-.635-2.218-1.031-.166-.13-.235-.414-.177-.723.059-.312.269-.69.68-.813.96-.29 1.594.206 1.663.263a.882.882 0 001.127-1.355 3.505 3.505 0 00-1.444-.68v-.378a.881.881 0 10-1.763 0v.437l-.09.025c-.978.294-1.708 1.128-1.905 2.175-.182.963.133 1.897.82 2.436.57.447 1.357.825 2.72 1.306.918.325.898 1.07.847 1.375-.104.616-.622 1.283-1.516 1.289-.87.005-1.143-.038-1.814-.476a.881.881 0 00-.965 1.475z" fill="#222A3F" stroke="#222A3F" stroke-width=".6"/><circle cx="58.451" cy="16.65" r="1.15" fill="#222A3F"/></svg><svg viewBox="0 0 32 32" id="more-info-circle" xmlns="http://www.w3.org/2000/svg"><path fill="none" opacity=".8" stroke-width="1.778" d="M31.111 16c0 8.346-6.765 15.111-15.111 15.111S.889 24.346.889 16 7.654.889 16 .889 31.111 7.654 31.111 16z"/><path opacity=".8" d="M10.667 10.667h10.667a.889.889 0 110 1.778H10.667a.889.889 0 110-1.778zM10.667 19.556h8a.889.889 0 110 1.778h-8a.889.889 0 110-1.778zM10.667 15.111h6.222a.889.889 0 110 1.778h-6.222a.889.889 0 110-1.778zM20.444 15.111h.889a.889.889 0 110 1.778h-.889a.889.889 0 110-1.778z"/></svg><svg fill="none" viewBox="0 0 72 72" id="rocking-horse" xmlns="http://www.w3.org/2000/svg"><g clip-path="url(#iclip0_14_13057)"><path d="M69.492 16.905l-10.094-7.72a5.891 5.891 0 00-3.56-1.206h-2.433A7.507 7.507 0 0052.3 5.951c-1.78-2.337-4.965-3.277-6.682-1.97-.836.634-1.292 1.795-1.252 3.182.039 1.331.524 2.674 1.367 3.782.287.378.607.727.95 1.039a27.78 27.78 0 00-3.444 5.364h-4.544a3.183 3.183 0 00-3.18 3.18 3.183 3.183 0 003.18 3.18h2.214a35.85 35.85 0 00-1.07 7.016 3.128 3.128 0 01-3.134 2.957h-8.73a7.442 7.442 0 01-4.654-1.64l-4.895-3.948a5.002 5.002 0 00-5.34-.622 5.004 5.004 0 00-2.868 4.55V55.31a59.464 59.464 0 01-3.872-1.77 4.389 4.389 0 00-5.883 1.956 4.389 4.389 0 001.955 5.883c9.445 4.733 19.96 7.234 30.406 7.234 6.795 0 13.585-1.045 20.178-3.107a1.055 1.055 0 00-.629-2.013c-6.39 1.998-12.967 3.01-19.55 3.01-10.12 0-20.306-2.423-29.46-7.01a2.277 2.277 0 01-1.014-3.052 2.277 2.277 0 013.052-1.014C8.85 57.154 15.841 59.697 19.5 58.5c.5 0 .794-4 3-7 2.205-3 8.852-4.996 15.725-3C45.1 50.496 45.462 58 46 58.5c.538.5 8.8-.343 14.248-3.073a2.277 2.277 0 013.052 1.014 2.277 2.277 0 01-1.014 3.052 66.314 66.314 0 01-5.25 2.35 1.055 1.055 0 10.777 1.961 68.378 68.378 0 005.418-2.425 4.389 4.389 0 001.955-5.883 4.389 4.389 0 00-5.883-1.955 59.358 59.358 0 01-3.872 1.769V40.686c0-4.72.46-8.73 1.407-12.258a.144.144 0 01.14-.106h8.649c2.771 0 5.137-1.696 6.026-4.322.889-2.625.041-5.41-2.16-7.095zm-31.866 3.623c0-.59.48-1.07 1.07-1.07h8.764c.59 0 1.07.48 1.07 1.07 0 .59-.48 1.07-1.07 1.07h-8.764c-.59 0-1.07-.48-1.07-1.07zm.209 15.14c.255.5.39 1.05.39 1.626a3.597 3.597 0 01-3.593 3.593 3.597 3.597 0 01-3.263-5.096h5.337c.387 0 .764-.044 1.128-.123zm-25.507 7.177a3.597 3.597 0 013.931 3.576 3.597 3.597 0 01-3.93 3.575v-7.151zm40.992-.61c-.393.144-.81.22-1.233.22a3.597 3.597 0 01-3.593-3.593 3.597 3.597 0 013.593-3.593c.497 0 .981.104 1.43.299a63.215 63.215 0 00-.197 5.118v1.55zm16.333-18.912c-.473 1.397-1.78 2.89-4.028 2.89h-2.499a5.6 5.6 0 01-1.707-4.026c0-2.615 1.845-4.893 4.357-5.468l2.434 1.862c1.786 1.366 1.917 3.346 1.444 4.742z" fill="#A1B3D6" fill-opacity=".4"/><path d="M62.501 60.5l-5 2.5c-1 .5-14 4-19.5 4.5s-11.5 0-16.5-1-14-3-17.5-5-3-3-3-4.5 1.5-2.5 3.5-2.5 9 3 15.5 5 13.5 1 18.5 1 12.5-2 17.5-4.5 5-1.5 7-1c1.6.4 1.667 2.5 1.5 3.5l-2 2z" fill="#5FA9FF"/><path d="M69.492 16.905l-10.094-7.72a5.891 5.891 0 00-3.56-1.206h-2.433A7.507 7.507 0 0052.3 5.951c-1.78-2.337-4.965-3.277-6.682-1.97-.836.634-1.292 1.795-1.252 3.182.039 1.331.524 2.674 1.367 3.782.287.378.607.727.95 1.039a27.78 27.78 0 00-3.444 5.364h-4.544a3.183 3.183 0 00-3.18 3.18 3.183 3.183 0 003.18 3.18h2.214a35.85 35.85 0 00-1.07 7.016 3.128 3.128 0 01-3.134 2.957h-8.73a7.442 7.442 0 01-4.654-1.64l-4.895-3.948a5.002 5.002 0 00-5.34-.622 5.004 5.004 0 00-2.868 4.55V55.31a59.464 59.464 0 01-3.872-1.77 4.389 4.389 0 00-5.883 1.956 4.389 4.389 0 001.955 5.883c9.445 4.733 19.96 7.234 30.406 7.234 6.795 0 13.585-1.045 20.178-3.107a1.055 1.055 0 00-.629-2.013c-6.39 1.998-12.967 3.01-19.55 3.01-10.12 0-20.306-2.423-29.46-7.01a2.277 2.277 0 01-1.014-3.052 2.277 2.277 0 013.052-1.014c8.515 4.266 18.003 6.528 27.423 6.528 9.766 0 19.23-2.423 27.422-6.528a2.277 2.277 0 013.052 1.014 2.277 2.277 0 01-1.014 3.052 66.314 66.314 0 01-5.25 2.35 1.055 1.055 0 10.777 1.961 68.378 68.378 0 005.418-2.425 4.389 4.389 0 001.955-5.883 4.389 4.389 0 00-5.883-1.955 59.358 59.358 0 01-3.872 1.769V40.686c0-4.72.46-8.73 1.407-12.258a.144.144 0 01.14-.106h8.649c2.771 0 5.137-1.696 6.026-4.322.889-2.625.041-5.41-2.16-7.095zm-31.866 3.623c0-.59.48-1.07 1.07-1.07h8.764c.59 0 1.07.48 1.07 1.07 0 .59-.48 1.07-1.07 1.07h-8.764c-.59 0-1.07-.48-1.07-1.07zm.209 15.14c.255.5.39 1.05.39 1.626a3.597 3.597 0 01-3.593 3.593 3.597 3.597 0 01-3.263-5.096h5.337c.387 0 .764-.044 1.128-.123zm-25.507 7.177a3.597 3.597 0 013.931 3.576 3.597 3.597 0 01-3.93 3.575v-7.151zm40.992-.61c-.393.144-.81.22-1.233.22a3.597 3.597 0 01-3.593-3.593 3.597 3.597 0 013.593-3.593c.497 0 .981.104 1.43.299a63.215 63.215 0 00-.197 5.118v1.55zm1.48-14.353a40.702 40.702 0 00-1.06 5.523 5.709 5.709 0 00-7.355 5.458 5.709 5.709 0 005.702 5.702c.416 0 .83-.048 1.233-.138v11.709a59.91 59.91 0 01-6.542 2.007c-.01-6.197-5.055-11.236-11.255-11.236h-5.397c-1.215 0-2.409.193-3.549.572a1.054 1.054 0 10.665 2.001 9.122 9.122 0 012.884-.463h5.397c5.043 0 9.146 4.103 9.146 9.146v.459a58.438 58.438 0 01-11.845 1.224 58.44 58.44 0 01-11.844-1.224v-.46c0-2.335.88-4.558 2.478-6.26a1.055 1.055 0 00-1.537-1.444 11.215 11.215 0 00-3.05 7.686 59.925 59.925 0 01-6.543-2.008v-4.024a5.71 5.71 0 006.04-5.692 5.71 5.71 0 00-6.04-5.69v-8.71c0-1.157.624-2.147 1.669-2.646a2.873 2.873 0 013.106.361l4.895 3.948a9.558 9.558 0 005.978 2.108h1.158c-.133.486-.204.99-.204 1.503a5.71 5.71 0 005.702 5.702 5.71 5.71 0 005.135-8.186 5.213 5.213 0 002.18-3.976 33.686 33.686 0 011.143-7.127h4.37a3.183 3.183 0 003.18-3.18 3.183 3.183 0 00-3.18-3.18h-1.844a24.976 24.976 0 013.378-4.813 1.054 1.054 0 00-.22-1.597 5.314 5.314 0 01-1.361-1.269c-.57-.75-.912-1.685-.938-2.566-.022-.76.195-1.272.42-1.443.564-.428 2.48-.069 3.727 1.569.48.634.81 1.332.953 2.02.101.49.532.84 1.032.84h3.23a3.77 3.77 0 012.28.773l5.66 4.33c-2.65 1.243-4.467 3.954-4.467 6.996 0 1.438.4 2.827 1.135 4.026h-3.468a2.257 2.257 0 00-2.178 1.669zm14.853-4.559c-.473 1.397-1.78 2.89-4.028 2.89h-2.499a5.6 5.6 0 01-1.707-4.026c0-2.615 1.845-4.893 4.357-5.468l2.434 1.862c1.786 1.366 1.917 3.346 1.444 4.742z" fill="#222A3F" stroke="#222A3F" stroke-width=".3"/><path d="M54.906 12.84c-.582 0-1.054.472-1.054 1.055v1.147a1.055 1.055 0 002.109 0v-1.147c0-.583-.472-1.055-1.055-1.055z" fill="#222A3F"/></g><defs><clipPath id="iclip0_14_13057"><path fill="#fff" d="M0 0h72v72H0z"/></clipPath></defs></svg><svg fill="none" viewBox="0 0 40 40" id="soft-skills-hands-1" xmlns="http://www.w3.org/2000/svg"><g clip-path="url(#jclip0_14_12815)"><path d="M3 31.5h8c0-.8.333-2.667.5-3.5l3-3.5L18 20c.167-.333.5-1.1.5-1.5 0-.5-1.5-1-2.5-1-.8 0-2 1-2.5 1.5v-8c0-.5-.5-2-1.5-2-.8 0-1.333.333-1.5.5 0-.167-.1-.7-.5-1.5-.5-1-1-1-2-1-.8 0-1 1-1 1.5-.167.5-.6 1.4-1 1-.5-.5-1.5 0-2 .5s-.5 1-2 1C.8 11 .5 12.333.5 13v11c0 1 1.5 3.5 2 4.5.4.8.5 2.333.5 3zM37 31.5h-8c0-.8-.333-2.667-.5-3.5l-3-3.5L22 20c-.167-.333-.5-1.1-.5-1.5 0-.5 1.5-1 2.5-1 .8 0 2 1 2.5 1.5v-8c0-.5.5-2 1.5-2 .8 0 1.333.333 1.5.5 0-.167.1-.7.5-1.5.5-1 1-1 2-1 .8 0 1 1 1 1.5.167.5.6 1.4 1 1 .5-.5 1.5 0 2 .5s.5 1 2 1c1.2 0 1.5 1.333 1.5 2v11c0 1-1.5 3.5-2 4.5-.4.8-.5 2.333-.5 3z" fill="#D9D8E4" fill-opacity=".5"/><path d="M15.5 26l-2-2.5L11 26l2.5 2.5 2-2.5zM21 4.5c.4-.4 1.167-1.5 1.5-2 .167.333.6 1.1 1 1.5.4.4 1.833 1.5 2.5 2-.5.333-1.6 1.1-2 1.5-.4.4-1.167 1.833-1.5 2.5-.333-.333-1.1-1.2-1.5-2-.4-.8-1.5-1.667-2-2 .5-.333 1.6-1.1 2-1.5z" fill="#5FA9FF"/><path d="M14.242 23.66l1.84-2.3c.62-.78 1.24-1.57 1.87-2.34.16-.2.15-.32-.05-.49-.9-.73-2.22-.73-3.1.02-.27.23-.51.48-.75.74-.07.08-.12.22-.12.33-.01.55 0 1.1-.01 1.66 0 .42-.21.64-.56.64-.34-.01-.54-.23-.54-.63v-5.88c0-.38.22-.64.54-.65.32-.01.56.25.56.65v2.35c.14-.09.23-.13.3-.19a3.54 3.54 0 014.54.23c.58.53.63 1.21.14 1.83-1.26 1.59-2.52 3.17-3.79 4.75-.17.21-.14.33.06.45.29.18.58.37.88.51.32.15.58.34.58.73 0 .37-.22.58-.55.71-.99.4-1.66 1.11-2.02 2.12-.12.34-.38.52-.71.52-.31 0-.54-.18-.68-.51-.12-.28-.26-.56-.42-.9-.32.47-.47.92-.53 1.39-.06.49-.07.99-.07 1.48 0 .13.06.28.15.37.24.27.37.58.37.93.01.42.01.84 0 1.26-.01.34-.13.64-.36.91-.09.11-.16.28-.16.42-.01.94 0 1.88-.01 2.83 0 .49-.4.76-.8.57-.25-.12-.31-.34-.31-.6v-2.43c0-.41 0-.41-.42-.41h-.83c-.36 0-.6-.22-.61-.54-.01-.35.2-.58.58-.59.49-.02.99-.01 1.48 0 .23.01.3-.07.29-.3-.02-.3 0-.61 0-.91 0-.38 0-.38-.37-.38h-3.4c-1.34 0-2.68.01-4.03-.01-.28 0-.37.09-.35.36.02.31.02.63 0 .94-.01.23.08.29.3.29.95-.01 1.9 0 2.86 0h.29c.44.01.71.23.71.57 0 .34-.28.56-.72.56-.86 0-1.71.01-2.57-.01-.26 0-.35.06-.34.33.02.82.02 1.64 0 2.46-.01.21-.1.46-.25.6-.11.1-.38.1-.55.05-.23-.06-.32-.27-.32-.52v-2.8c0-.21-.06-.36-.19-.54-.17-.25-.29-.56-.32-.85-.05-.42-.02-.86-.01-1.28.01-.37.12-.69.39-.95.06-.05.12-.14.12-.21-.01-.67.06-1.35-.13-2.01-.16-.55-.42-1.03-.76-1.49-.92-1.24-1.36-2.65-1.37-4.18-.02-3.62-.01-7.24 0-10.85 0-1.31 1.03-2.32 2.32-2.24.3.02.6.14.93.21.17-.67.54-1.2 1.18-1.51.64-.31 1.29-.26 1.96.01-.01-1.4.57-2.32 1.98-2.54.63-.1 1.2.14 1.67.57.47.44.67 1 .69 1.61.33-.06.63-.15.92-.17 1.22-.06 2.2.83 2.24 2.05.02.68.01 1.35.01 2.03 0 .4-.21.62-.55.62-.34 0-.55-.23-.55-.62 0-.62.01-1.24 0-1.86-.02-.87-.82-1.37-1.55-.97-.27.15-.44.39-.5.69-.03.15-.03.3-.03.45v6.11c0 .12 0 .25-.01.37-.04.32-.24.49-.56.48-.29-.01-.5-.19-.53-.49-.01-.11-.01-.23-.01-.34V8.7c0-.31-.05-.6-.26-.85-.3-.35-.68-.4-1.09-.31-.37.09-.67.47-.71.86-.02.14-.02.29-.02.43v8.11c0 .12 0 .25-.02.37-.05.31-.26.48-.58.46-.28-.01-.49-.21-.52-.51-.01-.09 0-.19 0-.29v-6.03c0-.6-.31-.99-.86-1.11-.56-.11-1.13.3-1.19.87-.01.13-.01.27-.01.4v5.97c0 .44-.18.67-.52.68-.37.02-.61-.22-.61-.62v-2.6-2.11c0-.66-.41-1.08-1.02-1.08-.61 0-1.03.44-1.03 1.08 0 3.67-.01 7.35 0 11.02 0 1.31.45 2.47 1.23 3.51.73.97 1.03 2.08 1.01 3.29-.01.62 0 .62.62.62h6.14c.36 0 .37 0 .36-.36-.02-1.24.11-2.01.86-3.36-.27-.14-.56-.26-.81-.42-.16-.1-.33-.24-.41-.4-.19-.4 0-.79.47-.97.49-.2.96-.46 1.28-.88.29-.38.53-.81.75-1.23.18-.36.39-.55.73-.53.32.01.55.2.68.56.02.11.07.22.15.39zm-.84 3.93c.21-.26.43-.55.68-.81.25-.25.54-.47.78-.68l-1.49-1.52-1.46 1.49 1.49 1.52zM26.082 17.76v-.42-6.71c0-.93.4-1.61 1.23-2.02.54-.27 1.1-.26 1.67-.08.07.02.14.05.21.07.01 0 .02 0 .07-.02.03-.79.35-1.45 1.05-1.88a2.147 2.147 0 012.84.53c.38.49.46 1.07.45 1.7.68-.27 1.33-.33 1.96-.01.63.31 1.01.82 1.19 1.53.12-.04.24-.07.35-.11 1.11-.42 2.41.2 2.75 1.34.09.3.14.61.14.92.01 1.66.01 3.31 0 4.97 0 .16-.03.37-.13.48-.12.13-.34.26-.5.24-.17-.02-.34-.2-.46-.35-.07-.09-.05-.25-.05-.39v-5.2c0-.45-.3-.85-.71-.97-.44-.13-.92.01-1.16.4-.12.19-.18.44-.18.67-.02 1.55-.01 3.1-.01 4.66 0 .41-.21.65-.55.66-.3.01-.51-.15-.57-.45-.02-.11-.02-.23-.02-.34v-6.03c0-.55-.28-.96-.71-1.08-.72-.2-1.34.27-1.35 1.03-.01 1.42 0 2.84 0 4.26v2.03c0 .26-.12.46-.37.55-.24.09-.54 0-.65-.22-.07-.15-.1-.35-.1-.52-.01-2.74 0-5.48-.01-8.23 0-.2-.01-.41-.07-.59-.17-.51-.65-.76-1.21-.66-.43.08-.78.52-.79 1.03-.01.75 0 1.5 0 2.26v6.31c0 .42-.22.65-.59.64-.27-.01-.47-.17-.51-.44-.02-.11-.02-.23-.02-.34v-6.23c0-.32-.03-.63-.26-.88-.3-.32-.66-.44-1.09-.31-.46.15-.68.49-.73.96-.01.1-.01.21-.01.31v10.22c0 .11 0 .23-.01.34-.03.3-.26.5-.56.5-.3 0-.53-.2-.54-.51-.02-.54-.02-1.09 0-1.63.01-.27-.08-.46-.27-.65-.47-.46-.92-.94-1.61-1.08-.82-.17-1.54.01-2.18.55-.17.14-.1.26 0 .39.85 1.07 1.7 2.15 2.56 3.21 1.18 1.47 2.37 2.93 3.56 4.38.9 1.09 1.33 2.33 1.31 3.74-.01.64-.06.56.57.56 2.07 0 4.13 0 6.2.01.29 0 .38-.08.37-.37-.05-1.16.16-2.25.8-3.24.32-.49.65-.98.92-1.5.34-.66.5-1.38.52-2.12.02-1 0-2 .01-3 0-.47.33-.75.73-.62.27.09.42.29.41.56-.03 1.38.12 2.76-.15 4.13-.2 1-.56 1.92-1.19 2.71-.84 1.06-1 2.27-.92 3.55 0 .07.06.16.11.21.28.27.39.6.4.98.01.41.01.82 0 1.23-.01.37-.13.7-.4.98-.08.08-.12.23-.12.35-.01.92 0 1.85 0 2.77 0 .45-.21.71-.56.71-.35 0-.56-.26-.57-.71 0-.83-.01-1.66 0-2.48 0-.24-.06-.31-.3-.31-2.17.01-4.34.01-6.51 0-.25 0-.33.07-.32.32.01.86.01 1.71 0 2.57-.01.49-.42.75-.81.54-.23-.12-.3-.33-.3-.58 0-.93.01-1.87-.01-2.8 0-.15-.08-.33-.17-.45-.2-.26-.34-.53-.34-.86-.01-.45-.01-.9 0-1.34.01-.33.14-.62.36-.88.09-.1.15-.26.16-.4.03-.78.04-1.58-.31-2.29-.25-.51-.55-1-.9-1.44-1.88-2.37-3.79-4.72-5.68-7.07-.17-.21-.34-.41-.48-.64-.31-.5-.22-1.13.2-1.54 1.28-1.25 3.21-1.37 4.64-.29.07.09.14.13.28.22zm6.97 14.23c-1.25 0-2.49.01-3.74 0-.25 0-.37.05-.35.33.02.31.02.63 0 .94-.02.25.07.33.32.32 1.22-.01 2.44-.01 3.65-.01h3.88c.22 0 .31-.07.3-.29-.01-.31-.02-.63 0-.94.02-.27-.08-.36-.36-.36-1.22.02-2.46.01-3.7.01zM22.423 10.58c-.36 0-.63-.18-.75-.54-.52-1.51-1.53-2.53-3.01-3.11-.36-.14-.53-.39-.53-.73 0-.37.19-.61.52-.74 1.49-.58 2.5-1.61 3.02-3.13.11-.32.43-.54.74-.54.35 0 .61.25.79.64.23.5.47 1 .79 1.44.53.74 1.28 1.23 2.12 1.57.43.18.6.4.59.78-.01.39-.25.61-.6.75-1.42.57-2.4 1.56-2.91 3.02-.15.39-.4.59-.77.59zm-.01-7.07c-.63 1.18-1.48 2.04-2.56 2.64.49.4 1.01.75 1.44 1.18.43.43.76.95 1.17 1.47.59-1.1 1.45-1.97 2.6-2.62-1.18-.63-2.01-1.51-2.65-2.67z" fill="#222A3F" stroke="#222A3F" stroke-width=".2"/></g><defs><clipPath id="jclip0_14_12815"><path fill="#fff" d="M0 0h40v40H0z"/></clipPath></defs></svg><svg fill="none" viewBox="0 0 40 40" id="technical-support-1" xmlns="http://www.w3.org/2000/svg"><path d="M8 28.5l-.5 8-.5 1 1-.5v-1h3l3 1c2.333.667 7.4 2 9 2 1.6 0 2.667-.667 3-1l11-8v-1.5L35 27l-8 4-1.5-1H21l-1-.5-3-2c-.333-.167-1.3-.5-2.5-.5s-3.5.667-4.5 1H8l-1-1.5 1 2z" fill="#D9D8E4"/><path d="M23.5 25.5H27l.5-1.5v-5.5c.5-.167 1.7-.7 2.5-1.5 1-1 1.5-3.5 1.5-4s0-1-.5-3c-.4-1.6-2.167-2.667-3-3l-.5 1v5c0 1-1 1.5-2.5 1.5-1.2 0-1.833-1.333-2-2V8l-.5-1L21 8c-.667.833-2 2.8-2 4 0 1.5.5 2.5 1 4 .4 1.2 2.167 2.167 3 2.5v4l.5 3z" fill="#5FA9FF"/><path d="M36.677 9.968h-.406c-.24-.842-.574-1.65-1-2.413l.288-.289c.33-.33.512-.769.512-1.237 0-.47-.182-.909-.512-1.239l-1.92-1.918a1.735 1.735 0 00-1.24-.514c-.47 0-.91.183-1.238.513l-.287.288a11.275 11.275 0 00-2.414-1.002V1.75C28.46.786 27.675 0 26.71 0h-2.716c-.965 0-1.75.786-1.75 1.751v.406c-.842.24-1.65.575-2.416 1.002l-.287-.287a1.735 1.735 0 00-1.24-.514c-.469 0-.909.183-1.237.513l-1.92 1.92c-.33.33-.51.769-.51 1.238 0 .468.18.908.51 1.237l.288.289a11.254 11.254 0 00-1 2.413h-.407c-.966 0-1.752.785-1.752 1.75v2.718c0 .966.786 1.751 1.752 1.751h.407c.238.84.573 1.647 1 2.413l-.288.289c-.33.33-.511.769-.511 1.237 0 .469.182.909.511 1.238l1.918 1.919c.33.331.77.514 1.24.514s.91-.183 1.238-.513l.288-.288c.766.428 1.575.763 2.415 1.001v.407c0 .965.786 1.751 1.751 1.751h2.715c.966 0 1.751-.786 1.751-1.751v-.407c.84-.238 1.649-.573 2.414-1l.286.286c.33.331.77.514 1.24.514.469 0 .909-.183 1.237-.512l1.922-1.92c.33-.33.511-.77.511-1.239 0-.468-.181-.908-.51-1.237l-.289-.289a11.32 11.32 0 001-2.413h.406c.965 0 1.75-.785 1.75-1.75v-2.718c0-.966-.785-1.751-1.75-1.751zm-9.779 14.436a.191.191 0 01-.189.189h-2.715a.191.191 0 01-.188-.19v-5.939a.781.781 0 00-.51-.732 5.39 5.39 0 01-3.51-5.028 5.369 5.369 0 012.528-4.54c-.003.101-.01.198-.014.248-.006.08-.01.142-.01.204v3.687a3.233 3.233 0 003.01 3.218.81.81 0 00.103 0 3.231 3.231 0 003.009-3.218V8.616c0-.062-.005-.124-.01-.203-.005-.05-.012-.147-.014-.25a5.37 5.37 0 012.527 4.54 5.39 5.39 0 01-3.508 5.029.781.781 0 00-.51.732V24.404h.001zm9.967-9.968c0 .1-.088.189-.188.189h-1.012a.781.781 0 00-.762.609 9.77 9.77 0 01-1.274 3.072.781.781 0 00.108.97l.718.717a.187.187 0 01.053.133c0 .03-.007.087-.053.133l-1.924 1.922a.182.182 0 01-.132.053.183.183 0 01-.133-.055l-.717-.717a.781.781 0 00-.97-.108 9.69 9.69 0 01-2.119 1.006v-3.376c2.424-1.128 4.017-3.586 4.017-6.28a6.93 6.93 0 00-3.033-5.718c-.29-.2-1.175-.804-1.95-.359-.759.438-.683 1.463-.65 1.901.002.038.005.07.005.088v3.687c0 .856-.653 1.572-1.497 1.655-.845-.083-1.5-.8-1.5-1.655V8.622c0-.024.004-.056.006-.094.033-.438.11-1.462-.65-1.9-.773-.446-1.66.159-1.951.358a6.93 6.93 0 00-3.033 5.718c0 2.694 1.594 5.153 4.02 6.28v3.376a9.744 9.744 0 01-2.122-1.006.78.78 0 00-.97.108l-.719.719a.182.182 0 01-.131.054.183.183 0 01-.133-.056l-1.92-1.92a.188.188 0 01-.053-.133c0-.03.006-.086.053-.133l.718-.717a.781.781 0 00.108-.97 9.722 9.722 0 01-1.274-3.071.781.781 0 00-.762-.61h-1.014a.194.194 0 01-.189-.189v-2.717c0-.103.086-.189.189-.189h1.014a.781.781 0 00.762-.61 9.718 9.718 0 011.274-3.071.781.781 0 00-.108-.97l-.718-.718a.188.188 0 01-.053-.133c0-.03.006-.086.053-.133l1.922-1.921a.182.182 0 01.131-.054c.036 0 .087.01.133.055l.718.718a.781.781 0 00.97.108c.949-.6 1.983-1.03 3.074-1.276a.781.781 0 00.609-.762V1.751c0-.102.086-.189.188-.189h2.715c.103 0 .19.087.19.19v1.011c0 .365.252.682.608.762a9.726 9.726 0 013.071 1.276.781.781 0 00.971-.108l.72-.719a.182.182 0 01.13-.054c.036 0 .088.01.134.056l1.922 1.92a.187.187 0 01.053.133c0 .03-.007.086-.053.133l-.718.717a.781.781 0 00-.108.97 9.773 9.773 0 011.274 3.072c.08.356.397.61.762.61h1.012c.102 0 .188.086.188.188v2.717zM29.905 34.4a.781.781 0 001.104 1.104l.003-.002a.78.78 0 00-.002-1.104.783.783 0 00-1.105.001z" fill="#222A3F"/><path fill-rule="evenodd" clip-rule="evenodd" d="M4.035 27.52h2.733c.278 0 .512.234.512.511v8.2c0 .277-.234.51-.512.51H4.083a.785.785 0 10.05 1.562h2.635c.917.001 1.696-.596 1.97-1.42h1.757c.155 0 .155 0 .336.05l.248.069 8.086 2.163c.351.095.674.188.985.279l.014.004c1.036.3 1.907.552 2.814.552 1.026 0 2.099-.322 3.51-1.262l.009-.007.01-.007 1.544-1.101a.781.781 0 10-.907-1.272l-1.533 1.093c-2.047 1.362-2.917 1.11-5.012.503l-.005-.001c-.32-.093-.653-.19-1.024-.29l-8.085-2.163c-.095-.025-.17-.046-.23-.064a2.177 2.177 0 00-.76-.109H8.843v-6.377h.844a.94.94 0 00.034 0l.044-.002c.655-.028.838-.046 1.588-.342 2.901-1.145 5.14-1.28 8.002 1.413l.038.036c.49.46.771.647 1.601.647h4.25c.498 0 .933.277 1.16.685l.003.004.005.01a1.327 1.327 0 01-1.168 1.954h-6.887a.781.781 0 000 1.562h6.887a2.892 2.892 0 002.82-3.518l6.173-3.17c.584-.3 1.383-.268 1.78.376.351.567.158 1.321-.449 1.754L32.86 32.28a.781.781 0 00.907 1.272l2.708-1.929c1.286-.917 1.66-2.571.872-3.847-.776-1.26-2.42-1.666-3.824-.946l-6.202 3.186a2.88 2.88 0 00-2.077-.884h-4.25c-.238 0-.296-.02-.3-.02a2.294 2.294 0 01-.23-.203l-.04-.037c-3.438-3.236-6.342-3.031-9.644-1.728-.535.211-.545.212-1.082.235h-.96a2.078 2.078 0 00-1.97-1.423h-2.63a.783.783 0 00-.888.778c0 .434.351.785.785.785z" fill="#222A3F"/></svg></svg>